<svg width="322" height="306" viewBox="0 0 322 306" fill="none" xmlns="http://www.w3.org/2000/svg"><link xmlns="" type="text/css" rel="stylesheet" id="dark-mode-custom-link"/><link xmlns="" type="text/css" rel="stylesheet" id="dark-mode-general-link"/><style xmlns="" lang="en" type="text/css" id="dark-mode-custom-style"/><style xmlns="" lang="en" type="text/css" id="dark-mode-native-style"/><style xmlns="" lang="en" type="text/css" id="dark-mode-native-sheet"/>
<path d="M161.786 305.622C250.064 305.622 321.628 268.358 321.628 222.391C321.628 176.424 250.064 139.16 161.786 139.16C73.5075 139.16 1.9436 176.424 1.9436 222.391C1.9436 268.358 73.5075 305.622 161.786 305.622Z" fill="#F5F5F5"/>
<path d="M264.189 233.265C287.735 233.265 306.822 222.244 306.822 208.649C306.822 195.054 287.735 184.033 264.189 184.033C240.643 184.033 221.555 195.054 221.555 208.649C221.555 222.244 240.643 233.265 264.189 233.265Z" fill="#E6E6E6"/>
<path d="M92.4934 194.039C108.804 203.457 109.468 219.004 93.1512 228.423C76.8339 237.841 49.734 237.561 33.4167 228.143C17.0994 218.725 17.1064 203.457 33.4167 194.039C49.727 184.621 76.1691 184.621 92.4934 194.039Z" fill="#E6E6E6"/>
<path d="M225.537 244.789L171.995 213.876C171.056 213.399 170.018 213.151 168.965 213.151C167.912 213.151 166.874 213.399 165.935 213.876L112.393 244.789C110.721 245.755 110.721 247.322 112.393 248.287L136.778 262.366L114.003 275.513C109.377 278.179 101.849 278.179 97.2095 275.513L61.3842 254.83C59.411 253.689 58.3195 252.255 58.3195 250.799C58.3195 249.344 59.411 247.903 61.3842 246.762L93.1302 228.43C93.2974 228.342 93.4452 228.222 93.5647 228.076C93.6842 227.93 93.7729 227.761 93.8255 227.58C93.8781 227.398 93.8935 227.208 93.8707 227.021C93.8479 226.833 93.7875 226.653 93.6931 226.489C93.5986 226.326 93.4721 226.183 93.3211 226.07C93.1701 225.957 92.9978 225.875 92.8144 225.83C92.6311 225.785 92.4406 225.778 92.2544 225.809C92.0681 225.839 91.89 225.907 91.7307 226.009L59.9988 244.327C57.123 245.992 55.5346 248.287 55.5346 250.792C55.5346 253.297 57.123 255.585 59.9988 257.251L95.8241 277.934C98.8534 279.496 102.212 280.31 105.62 280.31C109.028 280.31 112.387 279.496 115.416 277.934L139.591 263.982L165.963 279.201C166.902 279.677 167.94 279.925 168.993 279.925C170.046 279.925 171.084 279.677 172.023 279.201L225.565 248.287C227.209 247.322 227.209 245.755 225.537 244.789Z" fill="#E6E6E6"/>
<path d="M286.72 197.089C286.72 197.089 288.665 168.275 288.119 157.654C287.664 149.257 286.524 145.759 286.286 143.862C286.286 143.862 284.222 124.27 284.054 107.554C283.97 99.5216 283.228 93.8119 278.827 84.2678L250.538 91.034C249.964 95.2743 248.019 123.473 247.557 148.543C247.158 170.493 247.781 189.708 247.781 189.708V190.862C247.781 192.15 247.501 193.045 246.675 195.102C245.643 197.753 244.161 200.205 242.295 202.351C241.714 202.981 237.677 206.508 237.145 207.249C235.41 209.271 239.006 210.412 241.672 210.048C244.471 209.67 248.851 208.6 250.069 206.892C250.894 205.745 251.517 201.75 252.364 200.595C255.226 196.691 256.401 194.997 256.422 193.766C256.464 191.513 255.687 190.624 255.408 189.351C255.638 186.692 261.383 164.826 261.481 157.08C261.53 153.392 261.278 148.313 261.278 148.313L265.728 122.759C267.45 129.14 270.472 144.982 271.494 151.062C272.732 158.493 275.972 177.568 277.889 188.945C278.624 193.332 278.967 195.55 279.289 197.586L279.366 198.454C279.429 199.559 280.233 211.385 280.667 213.848C281.577 219.018 286.174 218.368 286.909 214.183C287.538 210.629 286.755 199.601 286.734 198.251L286.72 197.089Z" fill="#FFA8A7"/>
<path d="M286.72 197.089C288.021 197.089 287.168 202.134 287.503 205.36C287.86 208.824 288.994 211.357 289.323 214.19C289.764 216.667 289.383 219.22 288.238 221.46C287.335 223.56 282.787 226.358 281.059 223.413C279.331 220.467 278.96 217.059 279.163 213.827C279.366 210.594 279.163 208.425 279.226 205.885C279.289 203.646 277.644 197.929 279.331 197.607L279.408 198.475C280.016 199.685 286.16 199.923 286.776 198.286L286.72 197.089Z" fill="#37474F"/>
<path d="M256.716 196.516C257.115 198.132 256.716 202.568 256.716 202.568C256.716 202.568 256.016 204.101 253.518 205.115L252.399 198.944L256.716 196.516Z" fill="#263238"/>
<path d="M253.504 205.115L248.005 203.31L246.675 198.426L252.861 201.554L253.504 205.115Z" fill="black"/>
<path d="M247.781 190.862V189.708C247.032 190.071 245.388 196.096 243.163 200.203C241.133 203.975 237.11 206.074 235.802 207.718C234.052 209.908 237.453 212.742 242.904 211.574C245.612 210.993 249.712 209.264 250.824 207.438C251.937 205.612 252.308 202.253 253.217 200.91C254.127 199.566 256.289 198.02 256.716 196.495C257.072 195.118 257.072 193.673 256.716 192.296C256.289 190.897 255.911 189.225 255.436 189.379V190.435C255.072 191.177 253.749 192.045 250.999 192.199C249.656 192.261 248.382 192.059 247.781 190.862Z" fill="#37474F"/>
<path d="M249.964 90.6702C249.964 90.6702 248.096 111.431 247.494 129.812C246.892 148.194 247.431 171.914 247.431 171.914C247.431 171.914 249.327 173.271 253.504 173.46C257.682 173.649 259.102 172.257 259.102 172.257C259.102 172.257 261.656 163.923 262.055 158.06C262.308 154.886 262.308 151.696 262.055 148.522L265.784 123.991C265.784 123.991 270.514 148.145 271.053 151.062C271.592 153.98 276.119 179.793 276.119 179.793C276.119 179.793 277.896 181.43 282.458 181.346C286.496 181.269 287.664 179.821 287.664 179.821C287.664 179.821 288.637 163.993 288.413 157.234C288.224 151.272 286.86 146.528 286.587 142.659C286.314 138.789 286.16 116.769 285.887 108.373C285.614 99.9764 284.914 92.7693 277.728 82.6655L249.964 90.6702Z" fill="#455A64"/>
<path d="M265.812 124.011L262.706 108.618C262.706 108.618 257.297 107.218 254.771 103.902C254.771 103.902 255.471 107.568 261.068 109.912L264.371 125.222L263.223 141.05L265.812 124.011Z" fill="#37474F"/>
<path d="M210.437 86.8428C212.43 87.1468 214.465 86.996 216.392 86.4019C215.545 85.9789 214.754 85.455 214.034 84.8416C213.703 84.5761 213.489 84.1924 213.437 83.7718C213.385 83.3512 213.498 82.9268 213.754 82.5885C214.013 82.3086 214.656 82.9594 216.112 83.3722C217.973 83.897 219.323 84.0089 221.115 85.0445C221.791 85.4377 222.585 85.5766 223.354 85.4363C227.72 84.6177 237.901 79.8386 242.568 77.3477C243.519 73.4643 245.171 67.7546 247.207 60.6315C249.089 54.0682 252.105 51.1994 256.919 51.3043L256.226 65.5575C256.226 65.5575 253.931 75.4025 251.09 83.4422C250.594 84.8416 248.599 86.4719 244.947 87.8293C240.217 89.5856 234.507 91.2439 227.531 93.1542C224.704 93.9593 221.817 94.5326 218.897 94.8685C211.522 95.4982 208.695 93.469 207.701 92.0136C204.874 87.9973 206.547 86.0661 210.437 86.8428Z" fill="#FFA8A7"/>
<path d="M269.325 51.1994L276.056 51.7172C275.476 54.4529 275.641 57.294 276.532 59.9446C277.423 62.5953 279.008 64.9588 281.122 66.789L278.12 78.8801C278.218 80.3774 280.695 85.4154 283.095 90.8312C278.582 96.8767 256.443 98.9408 249.222 93.63C250.335 87.9343 251.167 83.6101 251.391 81.448L251.027 73.6322C241.973 66.2083 252.896 54.8939 256.919 51.2974L261.971 51.0735L269.325 51.1994Z" fill="#16B3AC"/>
<path d="M297.67 111.438C297.182 111.057 296.795 110.561 296.543 109.995C296.292 109.428 296.184 108.809 296.229 108.191C296.348 107.064 296.607 105.651 297.075 105.105C297.544 104.56 300.483 100.564 301.784 102.887C303.184 105.42 302.897 106.449 302.897 106.449L297.67 111.438Z" fill="#F28F8F"/>
<path d="M288.602 164.84C285.443 164.735 282.367 163.803 279.681 162.139L244.744 141.959C239.349 138.845 234.948 131.24 234.948 125.005V95.6941C234.944 94.7132 234.683 93.7504 234.191 92.9022C233.698 92.054 232.991 91.3501 232.141 90.8612C231.29 90.3722 230.326 90.1153 229.345 90.1162C228.364 90.117 227.401 90.3757 226.551 90.8661L214.32 97.9472C214.161 98.0485 213.983 98.1165 213.797 98.1471C213.611 98.1777 213.42 98.1704 213.237 98.1255C213.053 98.0806 212.881 97.999 212.73 97.8858C212.579 97.7726 212.453 97.63 212.358 97.4666C212.264 97.3032 212.203 97.1223 212.18 96.935C212.158 96.7476 212.173 96.5576 212.226 96.3763C212.278 96.1951 212.367 96.0263 212.486 95.8802C212.606 95.7341 212.754 95.6137 212.921 95.5262L225.187 88.4381C226.462 87.7018 227.909 87.3139 229.381 87.3132C230.854 87.3125 232.301 87.6991 233.577 88.4342C234.853 89.1693 235.913 90.2271 236.651 91.5013C237.389 92.7756 237.779 94.2216 237.782 95.6941V125.005C237.782 130.253 241.63 136.9 246.178 139.538L281.115 159.704C285.586 162.286 289.735 162.734 292.786 160.977C295.837 159.221 297.523 155.38 297.523 150.237V112.816C297.523 106.477 301.575 99.1717 306.745 96.184L315.275 91.286C315.434 91.1847 315.612 91.1167 315.799 91.0861C315.985 91.0555 316.175 91.0628 316.359 91.1077C316.542 91.1526 316.714 91.2341 316.865 91.3474C317.016 91.4606 317.143 91.6032 317.237 91.7666C317.332 91.93 317.392 92.1108 317.415 92.2982C317.438 92.4856 317.422 92.6756 317.37 92.8569C317.317 93.0381 317.228 93.2069 317.109 93.353C316.989 93.4991 316.842 93.6195 316.674 93.707L308.145 98.605C303.905 101.054 300.322 107.554 300.322 112.809V150.23C300.322 156.429 298.139 161.103 294.186 163.391C292.487 164.364 290.559 164.864 288.602 164.84Z" fill="#37474F"/>
<path d="M228.238 99.9694V102.257C228.238 105.917 225.67 110.374 222.493 112.2L201.306 124.438L179.762 111.997V93.3431L200.655 83.6731C203.979 82.1407 209.241 82.3786 212.417 84.2048L222.479 90.0195C225.649 91.8527 228.238 96.3099 228.238 99.9694Z" fill="#37474F"/>
<path d="M200.655 83.6731C203.979 82.1407 209.241 82.3786 212.417 84.2048L222.479 90.0195C225.649 91.8457 225.523 94.5746 222.199 96.1139L201.285 105.77L179.734 93.3361L200.655 83.6731Z" fill="#455A64"/>
<path opacity="0.15" d="M203.321 101.292C204.156 101.836 204.85 102.57 205.349 103.433C205.847 104.296 206.135 105.265 206.19 106.26V121.604L201.292 124.403L179.748 111.962V93.3431L185.205 90.8241L203.321 101.292Z" fill="black"/>
<path d="M177.907 90.1314C178.23 89.9812 178.587 89.9201 178.942 89.9546C179.296 89.989 179.635 90.1177 179.923 90.3273L201.11 102.565C201.946 103.11 202.641 103.845 203.14 104.709C203.638 105.574 203.926 106.544 203.979 107.54V125.789C204.017 126.144 203.959 126.502 203.811 126.827C203.664 127.152 203.431 127.431 203.139 127.636C202.649 127.909 200.921 128.909 200.438 129.196C200.114 129.346 199.756 129.407 199.4 129.373C199.045 129.339 198.705 129.21 198.416 129L177.222 116.762C176.387 116.218 175.692 115.484 175.194 114.621C174.695 113.758 174.407 112.79 174.353 111.794V93.546C174.316 93.1909 174.373 92.8323 174.519 92.5066C174.666 92.181 174.895 91.8998 175.185 91.6918L177.907 90.1314Z" fill="#37474F"/>
<path d="M198.416 104.119L177.222 91.8877C175.64 90.9711 174.353 91.7127 174.353 93.546V111.795C174.407 112.79 174.695 113.758 175.194 114.621C175.692 115.484 176.387 116.218 177.222 116.762L198.416 129C199.997 129.917 201.285 129.175 201.285 127.342V109.094C201.23 108.097 200.942 107.128 200.444 106.264C199.945 105.4 199.251 104.665 198.416 104.119Z" fill="#455A64"/>
<path d="M173.317 125.362V128.518C173.317 129.798 173.758 130.687 174.486 131.107L176.389 132.205C176.845 132.427 177.353 132.521 177.858 132.476C178.364 132.432 178.847 132.251 179.258 131.953L196.751 121.835V109.381L194.847 108.282L177.32 118.4C176.152 119.164 175.182 120.193 174.486 121.403C173.791 122.612 173.391 123.969 173.317 125.362ZM181.245 121.458C181.312 121.685 181.349 121.92 181.357 122.157C181.307 123.092 181.037 124.002 180.569 124.813C180.101 125.624 179.448 126.313 178.663 126.824C178.445 126.952 178.209 127.046 177.963 127.104C177.902 126.876 177.869 126.641 177.865 126.405C177.916 125.47 178.186 124.56 178.654 123.749C179.122 122.938 179.775 122.249 180.559 121.737C180.777 121.619 181.007 121.525 181.245 121.458Z" fill="#16B3AC"/>
<path opacity="0.2" d="M176.291 132.135C176.328 132.167 176.368 132.195 176.41 132.219L176.34 132.177L174.5 131.107C173.765 130.701 173.331 129.812 173.331 128.525V125.369C173.377 123.967 173.785 122.6 174.514 121.402L176.417 122.5C175.695 123.701 175.29 125.067 175.242 126.468V129.623C175.19 130.44 175.453 131.246 175.976 131.876C176.07 131.975 176.176 132.062 176.291 132.135Z" fill="black"/>
<path opacity="0.5" d="M196.751 109.381L179.258 119.498C178.071 120.238 177.093 121.269 176.417 122.493L174.514 121.395C175.189 120.172 176.165 119.142 177.348 118.4L194.875 108.282L196.751 109.381Z" fill="white"/>
<path opacity="0.2" d="M181.357 122.157C181.356 121.905 181.323 121.653 181.259 121.409C182.413 121.094 183.26 121.814 183.26 123.256C183.21 124.19 182.941 125.099 182.474 125.91C182.007 126.721 181.356 127.41 180.573 127.923C179.328 128.623 178.264 128.266 177.97 127.104C178.217 127.05 178.454 126.956 178.67 126.824C179.452 126.311 180.103 125.622 180.57 124.811C181.037 124 181.306 123.091 181.357 122.157Z" fill="black"/>
<path d="M157.161 116.028V119.19C157.161 120.464 157.602 121.36 158.329 121.772L160.233 122.878C160.688 123.095 161.194 123.185 161.697 123.138C162.199 123.092 162.68 122.91 163.087 122.612L180.58 112.487V100.053L178.677 98.9478L161.184 109.066C160.014 109.829 159.04 110.857 158.342 112.066C157.643 113.276 157.238 114.633 157.161 116.028ZM165.089 112.102C165.152 112.347 165.185 112.598 165.187 112.851C165.136 113.786 164.866 114.696 164.398 115.507C163.93 116.318 163.277 117.007 162.493 117.518C162.271 117.639 162.036 117.732 161.793 117.798C161.726 117.559 161.693 117.312 161.695 117.063C161.745 116.129 162.015 115.22 162.481 114.409C162.948 113.598 163.599 112.909 164.382 112.396C164.603 112.266 164.84 112.167 165.089 112.102Z" fill="#16B3AC"/>
<path opacity="0.2" d="M160.317 122.927H160.282H160.233L158.329 121.814C157.595 121.402 157.161 120.513 157.161 119.225V116.07C157.168 115.396 157.274 114.726 157.476 114.083C157.686 113.394 157.975 112.732 158.336 112.109L160.24 113.201C160.059 113.513 159.898 113.835 159.757 114.167C159.322 115.107 159.084 116.126 159.057 117.161V120.317C158.997 121.129 159.247 121.934 159.757 122.57C159.922 122.72 160.111 122.841 160.317 122.927Z" fill="black"/>
<path opacity="0.5" d="M180.601 100.053L163.108 110.171C161.92 110.909 160.942 111.94 160.268 113.166L158.364 112.074C159.028 110.851 159.991 109.816 161.163 109.066L178.656 98.9478L180.601 100.053Z" fill="white"/>
<path opacity="0.2" d="M165.18 112.844C165.181 112.594 165.15 112.345 165.089 112.102C166.236 111.781 167.09 112.508 167.09 113.95C167.04 114.884 166.77 115.793 166.303 116.604C165.837 117.415 165.186 118.104 164.403 118.617C163.15 119.316 162.094 118.96 161.8 117.791C162.048 117.739 162.284 117.644 162.5 117.511C163.282 116.999 163.932 116.309 164.398 115.498C164.863 114.687 165.131 113.778 165.18 112.844Z" fill="black"/>
<path d="M162.465 104.35C162.232 104.35 162.005 104.273 161.821 104.129C161.637 103.986 161.507 103.785 161.45 103.559L158.651 92.5874C158.582 92.3174 158.622 92.0308 158.764 91.7907C158.906 91.5505 159.137 91.3765 159.407 91.307C159.677 91.2374 159.964 91.2779 160.204 91.4196C160.444 91.5613 160.618 91.7926 160.687 92.0626L163.486 103.041C163.522 103.174 163.531 103.313 163.512 103.45C163.493 103.587 163.447 103.718 163.376 103.837C163.306 103.955 163.213 104.059 163.102 104.141C162.991 104.223 162.865 104.282 162.731 104.315C162.644 104.337 162.554 104.349 162.465 104.35Z" fill="#E0E0E0"/>
<path d="M154.586 108.926C154.35 108.926 154.121 108.847 153.935 108.702L143.516 100.466C143.401 100.383 143.305 100.278 143.231 100.156C143.158 100.035 143.11 99.8999 143.091 99.7595C143.071 99.6191 143.081 99.4762 143.118 99.3394C143.155 99.2026 143.22 99.0747 143.308 98.9636C143.396 98.8524 143.505 98.7602 143.63 98.6926C143.754 98.6249 143.891 98.5832 144.032 98.57C144.174 98.5567 144.316 98.5722 144.451 98.6155C144.586 98.6588 144.711 98.729 144.818 98.8218L155.237 107.05C155.454 107.224 155.595 107.476 155.628 107.753C155.66 108.029 155.583 108.307 155.412 108.527C155.314 108.652 155.188 108.753 155.045 108.823C154.902 108.892 154.745 108.927 154.586 108.926Z" fill="#E0E0E0"/>
<path d="M140.228 118.974C139.95 118.984 139.678 118.883 139.474 118.693C139.27 118.504 139.15 118.241 139.14 117.963C139.13 117.684 139.23 117.413 139.42 117.209C139.61 117.005 139.873 116.885 140.151 116.874L152.333 115.93C152.47 115.918 152.609 115.934 152.74 115.977C152.872 116.019 152.993 116.087 153.098 116.177C153.203 116.267 153.289 116.377 153.351 116.5C153.413 116.623 153.45 116.758 153.459 116.895C153.479 117.172 153.388 117.446 153.208 117.657C153.027 117.868 152.771 117.999 152.494 118.022L140.312 118.967L140.228 118.974Z" fill="#E0E0E0"/>
<path d="M307.193 100.018C306.956 97.4332 306.573 94.8635 306.046 92.3215C304.454 86.3577 302.332 80.5479 299.706 74.9617C298.538 72.7296 295.9 69.4759 294.032 66.726C291.387 62.8426 289.526 60.6665 287.517 58.0286C283.095 52.242 281.22 51.9061 276.056 51.7312C275.356 53.5714 273.761 61.1143 278.932 67.2088L290.015 78.894C290.645 79.9086 297.418 91.4889 298.545 95.7641C298.74 96.5244 298.645 97.3299 298.279 98.0242C297.394 99.9838 296.743 102.041 296.341 104.154C296.012 105.637 295.13 106.813 295.431 107.043C295.803 107.292 296.247 107.408 296.693 107.372C297.139 107.337 297.559 107.152 297.887 106.848C298.678 105.998 299.324 105.024 299.797 103.965C300.005 103.951 300.214 103.981 300.41 104.052C300.606 104.123 300.785 104.235 300.935 104.379C301.086 104.523 301.205 104.697 301.285 104.889C301.365 105.082 301.404 105.289 301.4 105.497C301.463 106.358 301.071 107.554 300.77 109.045C300.714 109.339 300.644 109.674 300.511 110.486C300.396 111.034 300.331 111.592 300.315 112.151C301.715 112.41 303.177 111.557 305.528 109.353C307.648 107.295 307.788 104.594 307.193 100.018Z" fill="#FFA8A7"/>
<path d="M270.528 47.7988C270.57 46.3994 275.118 43.1247 277.421 39.6402C279.52 36.4075 282.535 27.5211 275.468 24.6803C275.468 24.6803 276.994 20.4191 274.223 17.9071C271.452 15.3951 267.723 16.9485 267.135 17.9981C266.78 16.6896 266.012 15.5307 264.945 14.6936C263.879 13.8565 262.571 13.386 261.215 13.352C259.891 13.2523 258.576 13.6342 257.511 14.4275C256.447 15.2208 255.705 16.3721 255.422 17.6692C254.303 17.1851 253.053 17.1003 251.879 17.429C250.706 17.7577 249.681 18.4799 248.977 19.4744C246.381 23.05 249.824 26.3246 249.824 26.3246C249.377 26.626 249.021 27.0429 248.793 27.5309C248.565 28.0189 248.474 28.5597 248.529 29.0955C248.732 30.6069 250.181 30.9777 250.349 31.7334C250.381 31.8915 250.361 32.0559 250.292 32.2017C250.222 32.3474 250.107 32.4665 249.964 32.5409C249.821 32.6153 249.657 32.6409 249.498 32.6139C249.339 32.5869 249.193 32.5087 249.082 32.3911C249.12 32.5884 249.196 32.7764 249.307 32.9441C249.417 33.1118 249.56 33.2561 249.726 33.3685C249.893 33.481 250.08 33.5595 250.277 33.5995C250.473 33.6395 250.676 33.6402 250.873 33.6016C252.504 33.5107 253.959 31.2926 253.959 31.2926L270.528 47.7988Z" fill="#263238"/>
<path d="M255.694 24.2325C253.595 25.1421 251.615 28.3398 251.643 37.2821C251.643 44.86 253.994 46.7772 255.142 47.344C256.289 47.9108 258.605 47.6169 260.837 47.274V51.6332C260.837 51.6332 256.8 56.6432 260.417 59.1341C269.738 57.5038 270.451 51.3883 270.451 51.3883L270.619 41.8862C270.619 41.8862 271.9 43.2297 274.118 41.2565C275.979 39.6262 276.651 36.8343 275.251 35.2949C273.852 33.7556 272.061 33.6366 270.437 35.3509C270.437 35.3509 267.464 35.5468 262.992 32.741C258.521 29.9351 256.926 27.0873 255.694 24.2325Z" fill="#FFA8A7"/>
<path d="M261.061 42.0262C261.071 42.1707 261.051 42.3157 261.004 42.4526C260.957 42.5896 260.883 42.7158 260.787 42.8239C260.69 42.932 260.573 43.0198 260.443 43.0823C260.312 43.1448 260.17 43.1806 260.026 43.1877C259.801 43.2057 259.577 43.1562 259.381 43.0455C259.185 42.9347 259.027 42.7679 258.927 42.5664C258.826 42.3649 258.789 42.138 258.819 41.915C258.849 41.692 258.945 41.4831 259.095 41.3151C259.244 41.1472 259.441 41.0279 259.659 40.9727C259.877 40.9175 260.107 40.9289 260.318 41.0054C260.53 41.0819 260.714 41.22 260.846 41.4019C260.979 41.5839 261.054 41.8013 261.061 42.0262Z" fill="#B16668"/>
<path d="M255.303 34.6932C255.301 34.8904 255.242 35.0827 255.132 35.2465C255.022 35.4102 254.867 35.5382 254.685 35.6144C254.503 35.6907 254.303 35.712 254.109 35.6756C253.915 35.6392 253.737 35.5468 253.595 35.4098C253.453 35.2727 253.355 35.0971 253.312 34.9047C253.269 34.7123 253.283 34.5115 253.353 34.3272C253.423 34.1429 253.546 33.9832 253.706 33.868C253.866 33.7527 254.056 33.6868 254.253 33.6786C254.389 33.6758 254.524 33.6999 254.65 33.7495C254.776 33.7991 254.891 33.8731 254.989 33.9674C255.087 34.0618 255.165 34.1744 255.218 34.299C255.272 34.4235 255.301 34.5575 255.303 34.6932Z" fill="#263238"/>
<path d="M263.048 35.155C263.058 35.2995 263.039 35.4445 262.991 35.5814C262.944 35.7184 262.87 35.8446 262.774 35.9527C262.678 36.0608 262.561 36.1486 262.43 36.2111C262.299 36.2736 262.158 36.3094 262.013 36.3165C261.72 36.3184 261.439 36.2049 261.229 36.0006C261.019 35.7963 260.899 35.5176 260.893 35.225C260.889 35.0835 260.912 34.9424 260.962 34.8099C261.012 34.6774 261.087 34.5561 261.184 34.4528C261.281 34.3495 261.397 34.2662 261.526 34.2078C261.655 34.1494 261.794 34.117 261.936 34.1124C262.077 34.1078 262.218 34.1311 262.351 34.1811C262.483 34.231 262.605 34.3065 262.708 34.4033C262.811 34.5001 262.895 34.6163 262.953 34.7453C263.011 34.8743 263.044 35.0135 263.048 35.155Z" fill="#263238"/>
<path d="M254.603 30.6838L252.469 31.9363C252.545 32.0806 252.65 32.2077 252.778 32.3096C252.905 32.4115 253.052 32.4861 253.21 32.5288C253.367 32.5715 253.532 32.5812 253.693 32.5576C253.855 32.5339 254.009 32.4772 254.148 32.3911C254.429 32.2195 254.632 31.9464 254.717 31.6285C254.802 31.3106 254.761 30.9724 254.603 30.6838Z" fill="#263238"/>
<path d="M270.479 34.1194V38.3177C270.21 38.3245 269.942 38.2762 269.693 38.1757C269.443 38.0752 269.216 37.9246 269.027 37.7332C268.837 37.5418 268.689 37.3136 268.591 37.0628C268.493 36.8119 268.448 36.5437 268.457 36.2745C268.46 35.7262 268.669 35.1992 269.045 34.7993C269.42 34.3995 269.932 34.1566 270.479 34.1194Z" fill="#263238"/>
<path d="M258.059 33.6926L257.633 39.7381L254.442 38.9894L258.059 33.6926Z" fill="#F28F8F"/>
<path d="M260.865 47.288C263.209 47.0151 268.051 45.6717 268.842 43.6985C268.529 44.6871 267.924 45.5578 267.107 46.1965C265.644 47.4559 260.858 48.7574 260.858 48.7574L260.865 47.288Z" fill="#F28F8F"/>
<path d="M289.043 0.53322C289.936 0.874026 290.773 1.34566 291.527 1.93264C292.257 2.46656 292.885 3.12789 293.381 3.88484C293.853 4.613 294.163 5.43376 294.291 6.29185C294.417 7.20774 294.303 8.14066 293.962 8.99974C293.717 9.68752 293.339 10.3201 292.849 10.861C292.411 11.3221 291.909 11.718 291.359 12.0365C290.823 12.3425 290.261 12.6001 289.679 12.8062L288.028 13.4009C287.542 13.5764 287.074 13.7966 286.629 14.0587C286.209 14.2696 285.857 14.5946 285.614 14.9963C285.503 15.1838 285.343 15.3384 285.152 15.4441C285.061 15.4944 284.96 15.5237 284.855 15.5297C284.751 15.5358 284.647 15.5185 284.551 15.4791L282.367 14.6604C282.264 14.6221 282.169 14.5633 282.088 14.4876C282.008 14.4118 281.943 14.3207 281.899 14.2196C281.851 14.1228 281.826 14.0163 281.826 13.9082C281.826 13.8002 281.851 13.6936 281.899 13.5969C282.179 12.9236 282.593 12.3142 283.116 11.8056C283.59 11.3599 284.119 10.9766 284.691 10.6651C285.242 10.3689 285.818 10.1208 286.412 9.92336C287 9.72744 287.545 9.53852 288.056 9.3426C288.518 9.17324 288.961 8.95756 289.379 8.69886C289.738 8.47103 290.013 8.13195 290.162 7.73326C290.3 7.38404 290.351 7.00636 290.309 6.63316C290.268 6.25996 290.136 5.90256 289.924 5.59214C289.398 4.82757 288.632 4.25914 287.748 3.9758C286.978 3.6694 286.132 3.60916 285.326 3.80338C284.521 3.9976 283.795 4.43674 283.249 5.06036C283.11 5.20782 282.947 5.33081 282.766 5.42421C282.572 5.48503 282.362 5.47004 282.179 5.38223L279.856 4.50759C279.773 4.47884 279.697 4.43365 279.632 4.37473C279.567 4.31582 279.514 4.24438 279.478 4.16473C279.438 4.08308 279.417 3.99331 279.417 3.90233C279.417 3.81136 279.438 3.72159 279.478 3.63994C279.785 2.92649 280.266 2.30116 280.877 1.82069C281.557 1.25527 282.332 0.814649 283.165 0.519225C284.081 0.195733 285.042 0.0209233 286.013 0.00143648C287.048 -0.0181346 288.077 0.162438 289.043 0.53322ZM284.061 17.2564C284.163 17.2926 284.256 17.35 284.335 17.4247C284.413 17.4995 284.475 17.5899 284.516 17.6902C284.559 17.7895 284.581 17.8967 284.581 18.005C284.581 18.1134 284.559 18.2205 284.516 18.3199L283.564 20.8459C283.528 20.9479 283.47 21.0412 283.396 21.1196C283.321 21.198 283.23 21.2597 283.13 21.3007C283.031 21.3438 282.924 21.3661 282.815 21.3661C282.707 21.3661 282.6 21.3438 282.5 21.3007L280.03 20.3701C279.928 20.3338 279.835 20.2765 279.757 20.2017C279.678 20.1269 279.617 20.0365 279.576 19.9363C279.533 19.8369 279.51 19.7297 279.51 19.6214C279.51 19.5131 279.533 19.4059 279.576 19.3065L280.527 16.7805C280.565 16.6782 280.622 16.5845 280.697 16.5051C280.771 16.4258 280.861 16.3623 280.961 16.3187C281.061 16.2772 281.168 16.2558 281.276 16.2558C281.384 16.2558 281.491 16.2772 281.591 16.3187L284.061 17.2564Z" fill="#16B3AC"/>
<path d="M290.253 30.6908C290.326 30.7625 290.384 30.848 290.424 30.9423C290.463 31.0366 290.484 31.1378 290.484 31.2401C290.484 31.3424 290.463 31.4436 290.424 31.5379C290.384 31.6323 290.326 31.7177 290.253 31.7894L288.504 33.6366C288.434 33.7112 288.349 33.7707 288.256 33.8116C288.162 33.8525 288.061 33.8739 287.958 33.8745C287.856 33.8782 287.753 33.8616 287.657 33.8256C287.561 33.7896 287.473 33.7348 287.398 33.6646L285.614 31.9503C285.54 31.8802 285.48 31.7957 285.439 31.7018C285.398 31.608 285.377 31.5069 285.376 31.4045C285.371 31.3018 285.387 31.1991 285.423 31.1028C285.459 31.0065 285.515 30.9186 285.586 30.8448L287.342 29.0045C287.489 28.8605 287.686 28.7798 287.892 28.7798C288.097 28.7798 288.294 28.8605 288.441 29.0045L290.253 30.6908ZM300.749 18.005C301.4 18.6215 301.958 19.3285 302.407 20.1042C302.84 20.8392 303.141 21.6444 303.296 22.4832C303.427 23.2873 303.386 24.11 303.177 24.8972C302.954 25.6421 302.578 26.3323 302.073 26.9238C301.568 27.5153 300.946 27.9952 300.245 28.3328C299.698 28.5745 299.118 28.7348 298.524 28.8086C297.945 28.8737 297.363 28.8901 296.782 28.8576L295.13 28.7666C294.638 28.74 294.144 28.7564 293.654 28.8156C293.215 28.864 292.798 29.0336 292.45 29.3054C292.286 29.4298 292.089 29.505 291.884 29.5223C291.785 29.5333 291.686 29.5221 291.593 29.4894C291.499 29.4567 291.415 29.4033 291.345 29.3334L289.756 27.822C289.604 27.6777 289.513 27.4793 289.505 27.2692C289.495 27.1659 289.51 27.0616 289.549 26.9654C289.588 26.8691 289.649 26.7837 289.728 26.7165C290.216 26.2317 290.797 25.8509 291.436 25.5969C292.01 25.3835 292.61 25.2447 293.22 25.1841C293.809 25.1352 294.401 25.1352 294.99 25.1841C295.573 25.2354 296.119 25.2704 296.628 25.289C297.096 25.3126 297.565 25.2868 298.027 25.2121C298.425 25.1502 298.792 24.9583 299.07 24.6663C299.315 24.4123 299.495 24.1028 299.595 23.7641C299.695 23.4254 299.712 23.0676 299.643 22.7211C299.469 21.8628 299.014 21.0871 298.349 20.517C297.79 19.9704 297.076 19.6098 296.305 19.4846C295.533 19.3593 294.742 19.4755 294.039 19.8173C293.866 19.8933 293.681 19.9383 293.493 19.9502C293.397 19.9445 293.304 19.9192 293.218 19.8759C293.133 19.8325 293.057 19.7721 292.996 19.6983L291.303 18.082C291.181 17.9718 291.106 17.819 291.093 17.6552C291.089 17.5686 291.102 17.4821 291.134 17.4014C291.165 17.3206 291.213 17.2473 291.275 17.1864C291.804 16.683 292.448 16.3157 293.15 16.1158C293.948 15.8772 294.782 15.7801 295.613 15.8289C296.528 15.8847 297.429 16.0879 298.279 16.4307C299.189 16.7893 300.019 17.3244 300.721 18.005H300.749Z" fill="#16B3AC"/>
<g opacity="0.6">
<path opacity="0.6" d="M290.253 30.6908C290.326 30.7625 290.384 30.848 290.424 30.9423C290.463 31.0366 290.484 31.1378 290.484 31.2401C290.484 31.3424 290.463 31.4436 290.424 31.5379C290.384 31.6323 290.326 31.7177 290.253 31.7894L288.504 33.6366C288.434 33.7112 288.349 33.7707 288.256 33.8116C288.162 33.8525 288.061 33.8739 287.958 33.8745C287.856 33.8782 287.753 33.8616 287.657 33.8256C287.561 33.7896 287.473 33.7348 287.398 33.6646L285.614 31.9503C285.54 31.8802 285.48 31.7957 285.439 31.7018C285.398 31.608 285.377 31.5069 285.376 31.4045C285.371 31.3018 285.387 31.1991 285.423 31.1028C285.459 31.0065 285.515 30.9186 285.586 30.8448L287.342 29.0045C287.489 28.8605 287.686 28.7798 287.892 28.7798C288.097 28.7798 288.294 28.8605 288.441 29.0045L290.253 30.6908ZM300.749 18.005C301.4 18.6215 301.958 19.3285 302.407 20.1042C302.84 20.8392 303.141 21.6444 303.296 22.4832C303.427 23.2873 303.386 24.11 303.177 24.8972C302.954 25.6421 302.578 26.3323 302.073 26.9238C301.568 27.5153 300.946 27.9952 300.245 28.3328C299.698 28.5745 299.118 28.7348 298.524 28.8086C297.945 28.8737 297.363 28.8901 296.782 28.8576L295.13 28.7666C294.638 28.74 294.144 28.7564 293.654 28.8156C293.215 28.864 292.798 29.0336 292.45 29.3054C292.286 29.4298 292.089 29.505 291.884 29.5223C291.785 29.5333 291.686 29.5221 291.593 29.4894C291.499 29.4567 291.415 29.4033 291.345 29.3334L289.756 27.822C289.604 27.6777 289.513 27.4793 289.505 27.2692C289.495 27.1659 289.51 27.0616 289.549 26.9654C289.588 26.8691 289.649 26.7837 289.728 26.7165C290.216 26.2317 290.797 25.8509 291.436 25.5969C292.01 25.3835 292.61 25.2447 293.22 25.1841C293.809 25.1352 294.401 25.1352 294.99 25.1841C295.573 25.2354 296.119 25.2704 296.628 25.289C297.096 25.3126 297.565 25.2868 298.027 25.2121C298.425 25.1502 298.792 24.9583 299.07 24.6663C299.315 24.4123 299.495 24.1028 299.595 23.7641C299.695 23.4254 299.712 23.0676 299.643 22.7211C299.469 21.8628 299.014 21.0871 298.349 20.517C297.79 19.9704 297.076 19.6098 296.305 19.4846C295.533 19.3593 294.742 19.4755 294.039 19.8173C293.866 19.8933 293.681 19.9383 293.493 19.9502C293.397 19.9445 293.304 19.9192 293.218 19.8759C293.133 19.8325 293.057 19.7721 292.996 19.6983L291.303 18.082C291.181 17.9718 291.106 17.819 291.093 17.6552C291.089 17.5686 291.102 17.4821 291.134 17.4014C291.165 17.3206 291.213 17.2473 291.275 17.1864C291.804 16.683 292.448 16.3157 293.15 16.1158C293.948 15.8772 294.782 15.7801 295.613 15.8289C296.528 15.8847 297.429 16.0879 298.279 16.4307C299.189 16.7893 300.019 17.3244 300.721 18.005H300.749Z" fill="white"/>
</g>
<path d="M41.2815 206.62C43.4996 207.97 46.4454 208.019 49.2232 207.046L51.3224 192.352L41.5264 189.847L41.2815 206.62Z" fill="#FFA8A7"/>
<path d="M57.088 220.684C57.3329 220.936 57.186 222.783 56.8851 223.196C56.5842 223.609 54.8979 225.008 51.7912 225.064C48.8314 225.113 46.1935 224.574 44.5422 223.378C42.8908 222.181 42.1002 220.929 42.0232 219.235C41.9462 217.542 42.2261 215.94 41.4984 214.603C40.7707 213.267 39.8961 212.147 39.6722 211.49C39.4093 210.298 39.4093 209.064 39.6722 207.872L57.088 220.684Z" fill="#263238"/>
<path d="M49.9019 206.431C49.9157 207.069 50.005 207.703 50.1678 208.32C50.5494 209.643 51.0873 210.916 51.7702 212.112C52.1098 212.737 52.4909 213.337 52.9107 213.911C53.7434 215.023 54.8069 215.954 55.7096 217.024C56.6677 218.039 57.244 219.355 57.3399 220.747C57.3399 223.07 54.7859 223.721 52.8337 223.958C50.7124 224.217 48.5599 223.995 46.5363 223.308C45.4773 222.969 44.5383 222.332 43.8322 221.473C43.126 220.615 42.6825 219.57 42.555 218.466C42.478 217.815 42.555 217.164 42.513 216.514C42.3387 215.021 41.7952 213.595 40.9316 212.364C40.4295 211.652 40.0072 210.887 39.6721 210.083C39.1404 208.621 39.7141 207.032 40.1759 205.626C40.5748 204.416 40.8756 202.953 41.3235 203.093C41.3235 203.338 41.3235 203.884 41.3235 203.884C41.4494 204.157 41.7573 204.353 41.8343 204.674C41.9069 205.007 42.0075 205.332 42.1351 205.647C42.3257 206.134 42.6632 206.55 43.1007 206.836C43.1777 205.962 43.2547 205.087 43.3246 204.22C43.3048 204.082 43.3166 203.941 43.3592 203.808C43.4018 203.676 43.4741 203.555 43.5706 203.454C43.667 203.354 43.7851 203.276 43.9159 203.228C44.0467 203.18 44.1867 203.163 44.3252 203.177C45.9666 202.877 47.644 202.827 49.3002 203.03C49.4249 203.039 49.5466 203.073 49.6583 203.13C49.77 203.186 49.8694 203.264 49.9509 203.359C50.0363 203.545 50.0632 203.752 50.0279 203.954C49.9413 204.776 49.8992 205.603 49.9019 206.431Z" fill="#16B3AC"/>
<path opacity="0.2" d="M49.9019 206.431C49.9157 207.069 50.005 207.703 50.1678 208.32C50.5494 209.643 51.0873 210.916 51.7702 212.112C52.1098 212.737 52.4909 213.337 52.9107 213.911C53.7434 215.023 54.8069 215.954 55.7096 217.024C56.6677 218.039 57.244 219.355 57.3399 220.747C57.3399 223.07 54.7859 223.721 52.8337 223.958C50.7124 224.217 48.5599 223.995 46.5363 223.308C45.4773 222.969 44.5383 222.332 43.8322 221.473C43.126 220.615 42.6825 219.57 42.555 218.466C42.478 217.815 42.555 217.164 42.513 216.514C42.3387 215.021 41.7952 213.595 40.9316 212.364C40.4295 211.652 40.0072 210.887 39.6721 210.083C39.1404 208.621 39.7141 207.032 40.1759 205.626C40.5748 204.416 40.8756 202.953 41.3235 203.093C41.3235 203.338 41.3235 203.884 41.3235 203.884C41.4494 204.157 41.7573 204.353 41.8343 204.674C41.9069 205.007 42.0075 205.332 42.1351 205.647C42.3257 206.134 42.6632 206.55 43.1007 206.836C43.1777 205.962 43.2547 205.087 43.3246 204.22C43.3048 204.082 43.3166 203.941 43.3592 203.808C43.4018 203.676 43.4741 203.555 43.5706 203.454C43.667 203.354 43.7851 203.276 43.9159 203.228C44.0467 203.18 44.1867 203.163 44.3252 203.177C45.9666 202.877 47.644 202.827 49.3002 203.03C49.4249 203.039 49.5466 203.073 49.6583 203.13C49.77 203.186 49.8694 203.264 49.9509 203.359C50.0363 203.545 50.0632 203.752 50.0279 203.954C49.9413 204.776 49.8992 205.603 49.9019 206.431Z" fill="black"/>
<path d="M52.057 212.616C51.2314 211.916 49.3002 211.811 48.2366 211.867C47.1591 211.904 46.1079 212.209 45.1789 212.756C45.0416 212.84 44.8797 212.874 44.7204 212.852C44.5611 212.83 44.4142 212.754 44.3042 212.637C44.2396 212.569 44.1907 212.487 44.1609 212.398C44.1311 212.309 44.1212 212.215 44.1319 212.121C44.1426 212.028 44.1736 211.938 44.2227 211.858C44.2718 211.778 44.3378 211.709 44.4162 211.658C45.4444 210.987 46.6388 210.617 47.8658 210.587C50.5107 210.545 51.2104 211.021 51.2104 211.021C51.2104 211.021 52.3579 211.86 52.057 212.616Z" fill="#455A64"/>
<path d="M53.9113 215.093C52.8617 214.393 50.7346 214.393 49.671 214.428C48.6133 214.478 47.5875 214.807 46.6972 215.38C46.5593 215.465 46.3959 215.5 46.2351 215.479C46.0742 215.457 45.9259 215.38 45.8156 215.261C45.7501 215.193 45.7006 215.111 45.6707 215.022C45.6408 214.932 45.6311 214.837 45.6425 214.743C45.6539 214.649 45.686 214.559 45.7365 214.479C45.787 214.399 45.8547 214.332 45.9345 214.281C46.9688 213.574 48.1811 213.171 49.4331 213.12C52.043 213.071 52.6938 213.645 52.6938 213.645C52.9938 213.777 53.2595 213.977 53.4706 214.228C53.6816 214.479 53.8324 214.775 53.9113 215.093Z" fill="#455A64"/>
<path d="M46.9631 208.047C48.0681 207.915 49.1886 208.069 50.2168 208.495C50.6576 208.782 50.9165 209.516 50.6156 209.684C49.7082 209.263 48.7106 209.073 47.7118 209.132C46.7339 209.175 45.7707 209.385 44.864 209.754C44.6331 209.838 44.3672 209.964 44.1643 210.076C44.0895 210.114 44.0077 210.137 43.9238 210.142C43.84 210.147 43.756 210.135 43.6771 210.106C43.5982 210.077 43.5262 210.032 43.4655 209.974C43.4049 209.916 43.3569 209.846 43.3246 209.768C43.2807 209.639 43.2833 209.498 43.3318 209.371C43.3803 209.243 43.4718 209.136 43.5905 209.069C44.6292 208.492 45.779 208.144 46.9631 208.047Z" fill="#455A64"/>
<path d="M68.8921 201.099C70.5994 205.374 73.2723 204.059 77.3447 201.596L77.9604 187L67.5977 186.041L68.8921 201.099Z" fill="#FFA8A7"/>
<path d="M92.9763 211.392C93.1653 212.079 93.0852 212.812 92.7524 213.442C92.4305 214.03 89.1908 215.639 84.9576 215.121C81.8187 214.735 78.8414 213.512 76.3371 211.581C74.7768 210.419 73.1044 210.132 71.0053 209.894C68.9062 209.656 67.3318 208.929 66.919 207.921C66.5061 206.913 67.1359 205.248 67.1359 205.248L92.9763 211.392Z" fill="#263238"/>
<path d="M76.491 197.936C76.8736 197.855 77.25 197.748 77.6175 197.614C77.823 197.538 78.0489 197.538 78.2543 197.614C78.5202 197.733 78.6041 198.055 78.6671 198.314C78.7268 198.947 78.8487 199.573 79.031 200.182C79.3172 200.688 79.6972 201.134 80.1505 201.498C81.159 202.4 82.2588 203.195 83.4322 203.87C84.7826 204.695 86.1121 205.346 87.5045 206.067C88.8969 206.788 90.8491 207.305 91.9547 208.166C93.557 209.383 93.62 212.217 91.6608 213.225C89.9745 214.1 85.6083 214.911 81.1651 213.386C78.7371 212.553 76.1481 209.775 72.9295 209.348C70.8793 209.083 68.1504 208.761 66.9119 207.13C66.4641 206.431 66.856 204.401 67.2198 202.029C67.5487 199.93 67.8496 196.572 68.5283 196.796L68.5773 197.439L69.4029 198.426C69.5838 198.618 69.7753 198.801 69.9767 198.972C70.1976 199.23 70.4312 199.478 70.6764 199.713C71.0091 199.998 71.4226 200.172 71.8589 200.21C72.0658 200.223 72.2721 200.177 72.4537 200.077C72.8035 199.881 72.8525 199.42 73.1534 199.133C73.4788 198.798 73.8693 198.534 74.3009 198.356C74.9003 198.143 75.527 198.015 76.1621 197.978C76.2726 197.971 76.3824 197.957 76.491 197.936Z" fill="#16B3AC"/>
<path opacity="0.2" d="M76.491 197.936C76.8736 197.855 77.25 197.748 77.6175 197.614C77.823 197.538 78.0489 197.538 78.2543 197.614C78.5202 197.733 78.6041 198.055 78.6671 198.314C78.7268 198.947 78.8487 199.573 79.031 200.182C79.3172 200.688 79.6972 201.134 80.1505 201.498C81.159 202.4 82.2588 203.195 83.4322 203.87C84.7826 204.695 86.1121 205.346 87.5045 206.067C88.8969 206.788 90.8491 207.305 91.9547 208.166C93.557 209.383 93.62 212.217 91.6608 213.225C89.9745 214.1 85.6083 214.911 81.1651 213.386C78.7371 212.553 76.1481 209.775 72.9295 209.348C70.8793 209.083 68.1504 208.761 66.9119 207.13C66.4641 206.431 66.856 204.401 67.2198 202.029C67.5487 199.93 67.8496 196.572 68.5283 196.796L68.5773 197.439L69.4029 198.426C69.5838 198.618 69.7753 198.801 69.9767 198.972C70.1976 199.23 70.4312 199.478 70.6764 199.713C71.0091 199.998 71.4226 200.172 71.8589 200.21C72.0658 200.223 72.2721 200.177 72.4537 200.077C72.8035 199.881 72.8525 199.42 73.1534 199.133C73.4788 198.798 73.8693 198.534 74.3009 198.356C74.9003 198.143 75.527 198.015 76.1621 197.978C76.2726 197.971 76.3824 197.957 76.491 197.936Z" fill="black"/>
<path d="M81.5779 202.624C81.4433 202.334 81.2385 202.081 80.982 201.889C80.7255 201.698 80.4253 201.573 80.1085 201.526C79.1849 201.302 77.4986 201.904 76.428 202.694C76.3264 202.768 76.2444 202.866 76.1892 202.979C76.134 203.092 76.1073 203.216 76.1114 203.342C76.1156 203.468 76.1504 203.59 76.2129 203.699C76.2754 203.809 76.3637 203.901 76.47 203.968C76.6049 204.049 76.7611 204.088 76.9184 204.079C77.0757 204.07 77.2267 204.015 77.3517 203.919C78.5355 202.948 80.0538 202.483 81.5779 202.624Z" fill="#455A64"/>
<path d="M84.3838 204.423C84.1951 204.125 83.9378 203.877 83.6335 203.699C83.3291 203.521 82.9865 203.419 82.6345 203.401C81.191 203.386 79.78 203.83 78.6042 204.667C78.5046 204.736 78.4232 204.828 78.367 204.936C78.3107 205.043 78.2814 205.162 78.2814 205.283C78.2814 205.404 78.3107 205.524 78.367 205.631C78.4232 205.738 78.5046 205.83 78.6042 205.899C78.7351 205.978 78.8871 206.015 79.0398 206.005C79.1924 205.995 79.3383 205.938 79.4578 205.843C80.1188 205.25 80.9052 204.815 81.7582 204.569C82.6112 204.323 83.5087 204.273 84.3838 204.423Z" fill="#455A64"/>
<path d="M87.5045 206.06C87.2865 205.782 87.0111 205.554 86.6972 205.392C86.3832 205.231 86.038 205.139 85.6852 205.122C84.2921 205.133 82.938 205.584 81.8158 206.41C81.7185 206.482 81.6401 206.577 81.5875 206.686C81.5349 206.795 81.5096 206.915 81.5137 207.036C81.5178 207.158 81.5513 207.276 81.6112 207.381C81.6712 207.487 81.7558 207.576 81.8578 207.641C81.9848 207.727 82.1364 207.768 82.2894 207.76C82.4423 207.751 82.5881 207.692 82.7044 207.592C83.3291 206.979 84.0887 206.522 84.9223 206.255C85.7559 205.989 86.6403 205.922 87.5045 206.06Z" fill="#455A64"/>
<path d="M41.0086 167.226C41.3234 160.18 42.8208 156.513 43.0307 154.561C43.0307 154.561 43.6045 115.797 44.5491 104.035L79.2549 102.558C79.7657 115.153 80.2275 148.991 79.9546 153.469C79.6957 157.759 77.9534 194.962 77.9534 194.962C73.0554 196.495 67.8286 194.263 67.8286 194.263C67.8286 194.263 64.9177 173.096 64.4419 168.429C64.1042 164.231 64.2121 160.01 64.7638 155.834L62.5457 125.698C62.5457 125.698 59.8658 149.068 58.5434 157.885C57.032 167.967 50.5107 199.224 50.5107 199.224C45.8226 200.392 41.2605 198.37 41.2605 198.37C41.2605 198.37 40.5468 177.435 41.0086 167.226Z" fill="#455A64"/>
<path d="M62.5527 125.726L63.2105 121.57C65.2326 121.269 70.3545 118.071 73.3843 115.272C71.226 118.538 68.306 121.23 64.8758 123.116L64.7708 155.848L62.5527 125.726Z" fill="#37474F"/>
<path d="M76.7849 82.1407C74.4269 76.7599 70.3685 67.6986 70.3685 67.6986L69.34 53.0047C70.8414 53.0525 72.3388 53.1857 73.8251 53.4035C76.0082 53.7464 79.4718 55.8315 81.0531 59.7639C82.2357 62.6817 88.3791 80.4824 88.3791 80.4824L99.0847 74.8427C101.828 73.1004 102.8 70.2106 104.55 68.5453C106.299 66.88 108.048 66.6281 109.986 65.2916C111.924 63.9552 112.687 62.8846 113.177 64.2211C113.667 65.5575 111.498 67.6077 111.078 68.1185C110.658 68.6293 108.552 69.7208 111.239 69.8607C113.926 70.0007 119.362 67.3838 120.664 66.9359C121.965 66.4881 121.853 68.0345 121.175 68.9931C120.496 69.9517 120.426 72.7646 119.292 74.3389C118.089 76.0182 117.438 76.7389 114.856 77.7395C112.456 78.6631 107.481 78.901 104.92 80.3774C102.359 81.8538 96.16 87.4585 92.0247 90.3343C86.4759 94.1968 83.3552 94.4486 81.1791 91.3699C79.003 88.2912 77.6176 84.0369 76.7849 82.1407Z" fill="#FFA8A7"/>
<path d="M67.8915 52.6898C71.53 52.4099 75.8193 52.6338 78.1913 54.7889C80.0875 56.5172 80.8012 57.5878 82.9144 63.5633C84.3138 67.5727 87.3086 76.8089 87.3086 76.8089C83.1967 77.7366 79.5068 79.9973 76.8129 83.2393L69.9907 67.9086L67.8915 52.6898Z" fill="#E0E0E0"/>
<path d="M88.3791 80.4474C86.5352 81.1002 84.9487 82.3263 83.852 83.946C83.852 83.946 84.1109 81.1471 88.0503 79.4748L88.3791 80.4474Z" fill="#F28F8F"/>
<path d="M59.1801 52.032C57.4567 51.961 55.7325 52.1497 54.0652 52.5918C50.8675 53.4385 45.1369 55.0478 45.1369 55.0478C43.3176 55.9924 42.6109 59.1411 42.1981 60.9534C40.8826 66.754 44.2972 79.8456 44.822 84.9465C45.3468 90.0474 44.2133 105.672 44.2133 105.672C48.1247 110.206 69.319 113.215 79.6397 105.672C79.6397 105.672 80.0876 69.7978 79.073 64.6479C77.5336 56.8531 75.2455 53.1516 67.1778 52.6828L59.1801 52.032Z" fill="#F5F5F5"/>
<path d="M63.7073 32.79L61.4052 34.0564C61.2459 33.7395 61.213 33.3739 61.313 33.0335C61.413 32.6932 61.6386 32.4036 61.944 32.2232C62.0961 32.1406 62.2634 32.0897 62.4358 32.0736C62.6082 32.0574 62.782 32.0764 62.9468 32.1294C63.1117 32.1824 63.264 32.2682 63.3947 32.3818C63.5254 32.4953 63.6317 32.6342 63.7073 32.79Z" fill="#263238"/>
<path d="M73.7202 33.7136L71.621 32.0972C71.7196 31.9553 71.8461 31.8349 71.9928 31.7433C72.1394 31.6518 72.3032 31.5911 72.474 31.565C72.6449 31.5388 72.8193 31.5476 72.9866 31.591C73.1539 31.6344 73.3107 31.7114 73.4473 31.8173C73.7254 32.0395 73.9084 32.3592 73.9591 32.7114C74.0098 33.0637 73.9243 33.4221 73.7202 33.7136Z" fill="#263238"/>
<path d="M53.1276 25.464C53.1276 25.464 50.6507 25.8068 49.741 27.696C48.9574 29.3194 49.2372 33.2378 50.2938 37.492C50.8909 40.2523 51.7823 42.9406 52.9527 45.5107C53.3662 46.2389 54.0419 46.782 54.8419 47.0291L54.709 41.9492L54.5271 38.4506C54.5271 38.4506 56.7871 35.3579 57.039 32.8529C57.3609 29.5923 56.6752 28.2558 56.6752 28.2558L53.1276 25.464Z" fill="#263238"/>
<path d="M57.123 30.362C57.1322 32.8692 58.1357 35.2703 59.9131 37.0386C61.6906 38.8068 64.0969 39.7978 66.6041 39.7941C71.8239 39.7941 75.7423 35.4909 75.7003 30.264C75.6584 25.0371 71.74 20.8529 66.5131 20.8739C64.0114 20.8924 61.6189 21.901 59.8591 23.6792C58.0993 25.4574 57.1155 27.8602 57.123 30.362Z" fill="#263238"/>
<path d="M54.709 37.8559C53.8553 38.5976 53.1626 36.6874 52.4489 35.9387C51.7352 35.19 49.3912 34.1824 48.2506 36.6384C47.1101 39.0944 49.2722 42.6559 51.0495 43.3416C51.586 43.5448 52.1753 43.5614 52.7224 43.3887C53.2694 43.2161 53.7425 42.8643 54.0652 42.39V53.5854C56.7591 58.4414 61.5102 58.2875 64.0501 58.0146C66.5901 57.7417 67.1429 55.1038 65.2886 52.9767V49.4781C66.6999 49.6996 68.131 49.7676 69.5569 49.681C71.8799 49.3172 73.0554 47.5819 73.7552 45.0419C74.8747 40.9906 75.3295 34.1894 73.7552 26.3316C71.1522 24.3164 62.1259 24.6523 56.6612 28.1159C57.088 35.162 55.5206 37.1212 54.709 37.8559Z" fill="#FFA8A7"/>
<path d="M74.217 22.4412C74.5685 20.9826 74.7261 19.4839 74.6858 17.984C74.6858 17.3963 74.5388 16.6826 73.9861 16.4587C73.4333 16.2348 72.8875 16.6406 72.4117 16.9625C70.3965 18.3199 67.8916 18.7047 65.4636 18.8377C61.2653 19.0686 54.8489 18.7957 52.7148 23.3928C52.12 24.6663 52.0151 26.0097 53.1906 26.8914C54.2386 27.5934 55.4371 28.0393 56.6892 28.1928C58.7883 28.5637 60.8874 29.0255 63.0425 29.3124C65.1977 29.5993 67.7586 29.8792 69.8927 29.2214C71.691 28.6687 73.5172 28.1928 74.8537 26.7654C76.0121 25.5208 76.6656 23.8895 76.6869 22.1893C76.6869 21.9514 76.638 21.6505 76.4001 21.5876C76.2812 21.5726 76.1607 21.5972 76.0572 21.6575L74.217 22.4412Z" fill="#263238"/>
<path d="M65.2676 49.5551C65.2676 49.5551 60.0757 48.5265 58.2705 47.5679C57.2012 47.0139 56.3234 46.1508 55.7515 45.0909C56.0174 46.1497 56.4933 47.1443 57.151 48.0157C58.4874 49.709 65.2536 50.9335 65.2536 50.9335L65.2676 49.5551Z" fill="#F28F8F"/>
<path d="M64.2251 36.2255C64.2182 36.455 64.1439 36.6774 64.0114 36.8649C63.8788 37.0524 63.694 37.1967 63.48 37.2798C63.266 37.3629 63.0322 37.3812 62.8079 37.3322C62.5836 37.2832 62.3786 37.1693 62.2187 37.0045C62.0588 36.8398 61.9509 36.6316 61.9086 36.406C61.8663 36.1803 61.8913 35.9472 61.9807 35.7357C62.0701 35.5242 62.2198 35.3437 62.4111 35.2168C62.6025 35.0899 62.8269 35.0221 63.0565 35.022C63.3708 35.0276 63.6701 35.1572 63.8891 35.3827C64.108 35.6082 64.2288 35.9113 64.2251 36.2255Z" fill="#263238"/>
<path d="M65.9044 44.3072C65.91 44.603 65.7984 44.8889 65.5939 45.1027C65.3893 45.3164 65.1086 45.4404 64.8128 45.4478C64.5153 45.4423 64.232 45.3192 64.0248 45.1055C63.8177 44.8918 63.7035 44.6048 63.7073 44.3072C63.7045 44.1611 63.7305 44.0159 63.7839 43.8799C63.8372 43.7438 63.9169 43.6196 64.0182 43.5143C64.1196 43.4091 64.2407 43.3248 64.3747 43.2664C64.5086 43.2079 64.6527 43.1764 64.7988 43.1737C65.0952 43.1792 65.3774 43.3013 65.5844 43.5135C65.7913 43.7257 65.9063 44.0109 65.9044 44.3072Z" fill="#B16668"/>
<path d="M62.7557 32.5521L60.3487 34.0704C60.1501 33.74 60.0872 33.3455 60.1733 32.9698C60.2595 32.594 60.4878 32.2662 60.8105 32.0553C60.9701 31.9574 61.1477 31.8926 61.3328 31.8647C61.5179 31.8367 61.7067 31.8462 61.8881 31.8925C62.0695 31.9388 62.2397 32.0211 62.3887 32.1343C62.5377 32.2476 62.6625 32.3897 62.7557 32.5521Z" fill="#263238"/>
<path d="M71.2502 31.0687L73.7831 32.2022C73.7148 32.3685 73.6135 32.5192 73.4853 32.6451C73.357 32.7711 73.2046 32.8698 73.0372 32.9352C72.8697 33.0006 72.6908 33.0314 72.5111 33.0257C72.3314 33.0199 72.1548 32.9778 71.9919 32.9019C71.6612 32.7447 71.4015 32.4691 71.2642 32.1297C71.1268 31.7902 71.1218 31.4116 71.2502 31.0687Z" fill="#263238"/>
<path d="M72.5866 35.8757C72.5784 36.0962 72.5056 36.3095 72.3772 36.489C72.2488 36.6685 72.0706 36.8063 71.8645 36.8854C71.6585 36.9645 71.4338 36.9813 71.2183 36.9338C71.0028 36.8862 70.806 36.7765 70.6523 36.618C70.4986 36.4596 70.3949 36.2596 70.3539 36.0427C70.313 35.8259 70.3366 35.6018 70.4219 35.3982C70.5072 35.1947 70.6504 35.0207 70.8337 34.8979C71.0171 34.775 71.2324 34.7087 71.4531 34.7072C71.7581 34.7127 72.0485 34.8387 72.2609 35.0576C72.4733 35.2766 72.5904 35.5707 72.5866 35.8757Z" fill="#263238"/>
<path d="M66.863 33.9025L67.2828 41.6833L70.9703 40.7037L66.863 33.9025Z" fill="#F28F8F"/>
<path d="M1.5308 65.9493C2.7413 66.6001 7.67428 70.0706 10.3542 70.3715C11.4877 70.4975 11.7956 70.3155 11.7536 70.0217C11.6976 69.6158 10.9769 69.0071 10.802 68.6782C10.5011 68.1045 8.70285 65.7254 9.40257 64.4799C10.1023 63.2345 10.711 64.424 12.3763 66.0543C14.0417 67.6846 15.749 68.2514 17.2114 70.1476C18.6738 72.0438 19.1636 75.0456 21.5846 77.2217L31.2266 83.806C31.2266 83.806 35.7188 62.9616 37.6919 60.5056C39.7911 57.9236 48.7964 63.5493 46.9072 71.757C45.0179 79.9646 40.7147 94.2107 37.7199 97.0026C35.7887 98.8148 31.7234 97.1075 26.6505 92.5944C22.6411 89.0259 17.1484 83.6731 14.8253 81.7768C12.5023 79.8806 7.67428 78.859 5.45619 77.5786C3.07017 76.1791 2.54538 75.3605 1.62876 73.5062C0.768112 71.764 1.15295 68.9721 0.642164 67.9085C0.131374 66.845 0.299305 65.2986 1.5308 65.9493Z" fill="#FFA8A7"/>
<path d="M45.1369 55.0478C48.2296 56.979 48.3835 59.7919 48.5375 63.0106C48.5813 66.7782 47.9851 70.526 46.7742 74.094C45.4657 78.1453 43.3876 85.5413 43.3876 85.5413C43.3876 85.5413 35.3129 85.7302 31.1566 82.1407C31.1566 82.1407 33.0528 74.164 34.3893 68.1464C35.7257 62.1289 37.3491 55.7265 45.1369 55.0478Z" fill="#E0E0E0"/>
<path d="M31.1916 83.82C33.3957 85.0445 34.6902 87.6754 35.089 88.718C34.9936 87.504 34.6115 86.33 33.9741 85.2925C33.3367 84.2549 32.4622 83.3833 31.4225 82.7495L31.1916 83.82Z" fill="#F28F8F"/>
<path d="M114.961 235.049L168.965 266.228V277.717L114.961 246.538V235.049Z" fill="#16B3AC"/>
<path opacity="0.35" d="M114.961 235.049L168.965 266.228V277.717L114.961 246.538V235.049Z" fill="black"/>
<path d="M222.969 235.049L168.965 266.228V277.717L222.969 246.538V235.049Z" fill="#16B3AC"/>
<path opacity="0.2" d="M222.969 235.049L168.965 266.228V277.717L222.969 246.538V235.049Z" fill="black"/>
<path d="M222.969 235.049L168.965 203.877L114.961 235.049L168.965 266.228L222.969 235.049Z" fill="#16B3AC"/>
<path opacity="0.15" d="M222.969 235.049L168.965 203.877L114.961 235.049L168.965 266.228L222.969 235.049Z" fill="black"/>
<path opacity="0.1" d="M168.965 266.228V262.946L120.643 235.049H114.961L168.965 266.228Z" fill="black"/>
<path opacity="0.1" d="M168.965 203.877V207.158L217.287 235.049H222.969L168.965 203.877Z" fill="black"/>
<path d="M222.969 235.049H217.287L168.965 262.946V266.228L222.969 235.049Z" fill="#16B3AC"/>
<path d="M168.965 203.877V207.158L120.643 235.049H114.961L168.965 203.877Z" fill="#16B3AC"/>
<path d="M169.161 221.516L192.363 234.909C194.099 235.917 194.099 237.54 192.363 238.54L175.06 248.56C174.085 249.058 173.006 249.318 171.911 249.318C170.816 249.318 169.737 249.058 168.762 248.56L145.56 235.168C143.824 234.16 143.824 232.537 145.56 231.536L162.871 221.516C163.844 221.019 164.922 220.76 166.016 220.76C167.109 220.76 168.187 221.019 169.161 221.516Z" fill="#37474F"/>
<path d="M175.06 248.56L191.79 238.897L169.161 225.834C168.184 225.342 167.106 225.085 166.012 225.085C164.919 225.085 163.84 225.342 162.864 225.834L146.133 235.511L168.762 248.56C169.737 249.058 170.816 249.318 171.911 249.318C173.006 249.318 174.085 249.058 175.06 248.56Z" fill="#455A64"/>
<path d="M155.146 235.07L165.299 229.213C165.487 229.118 165.696 229.069 165.907 229.069C166.119 229.069 166.327 229.118 166.516 229.213L167.762 229.913C168.097 230.102 168.097 230.417 167.762 230.613L157.609 236.469C157.421 236.564 157.214 236.613 157.003 236.613C156.793 236.613 156.586 236.564 156.398 236.469L155.153 235.77C155.08 235.745 155.017 235.698 154.972 235.636C154.927 235.574 154.902 235.499 154.901 235.422C154.901 235.345 154.924 235.27 154.967 235.207C155.011 235.144 155.073 235.096 155.146 235.07Z" fill="#263238"/>
<path d="M170.308 243.837L180.461 237.981C180.649 237.886 180.856 237.837 181.067 237.837C181.277 237.837 181.484 237.886 181.672 237.981L182.924 238.68C183.26 238.869 183.26 239.184 182.924 239.38L172.771 245.237C172.584 245.331 172.376 245.381 172.166 245.381C171.956 245.381 171.749 245.331 171.561 245.237L170.316 244.537C170.243 244.512 170.18 244.466 170.135 244.403C170.089 244.341 170.065 244.266 170.064 244.19C170.063 244.113 170.086 244.038 170.13 243.975C170.174 243.911 170.236 243.863 170.308 243.837Z" fill="#263238"/>
<path d="M145.504 257.741C145.447 256.679 145.139 255.645 144.607 254.725C144.074 253.804 143.331 253.023 142.439 252.444C142.13 252.218 141.767 252.08 141.387 252.043C141.006 252.006 140.623 252.072 140.277 252.234L138.954 253.003C138.643 253.223 138.396 253.522 138.239 253.868C138.081 254.215 138.019 254.598 138.059 254.977C138.117 256.039 138.424 257.072 138.955 257.993C139.486 258.915 140.227 259.698 141.116 260.281C141.426 260.506 141.791 260.644 142.172 260.681C142.554 260.718 142.938 260.652 143.286 260.49L144.601 259.7C144.91 259.481 145.157 259.185 145.315 258.841C145.474 258.497 145.539 258.118 145.504 257.741Z" fill="#16B3AC"/>
<path opacity="0.1" d="M141.116 253.234C142.009 253.813 142.751 254.595 143.284 255.515C143.817 256.436 144.124 257.469 144.181 258.531C144.181 260.483 142.782 261.274 141.116 260.302C140.227 259.719 139.486 258.936 138.955 258.014C138.424 257.093 138.117 256.06 138.059 254.998C138.059 253.052 139.43 252.262 141.116 253.234Z" fill="black"/>
<path d="M105.62 275.583C102.206 275.643 98.833 274.826 95.8241 273.211L59.9988 252.528C57.123 250.862 55.5346 248.567 55.5346 246.062C55.5346 243.557 57.123 241.269 59.9988 239.604L101.506 215.639C106.054 213.015 109.902 206.361 109.902 201.106V69.7488C109.902 69.3776 110.05 69.0217 110.312 68.7592C110.575 68.4968 110.931 68.3494 111.302 68.3494C111.673 68.3494 112.029 68.4968 112.291 68.7592C112.554 69.0217 112.701 69.3776 112.701 69.7488V201.106C112.701 207.445 108.405 214.897 102.905 218.067L61.3982 242.032C59.425 243.173 58.3335 244.6 58.3335 246.062C58.3335 247.525 59.425 248.959 61.3982 250.1L97.2235 270.783C101.849 273.456 109.377 273.456 114.017 270.783L140.431 255.543C140.59 255.442 140.768 255.374 140.954 255.344C141.141 255.313 141.331 255.32 141.514 255.365C141.698 255.41 141.87 255.492 142.021 255.605C142.172 255.718 142.299 255.861 142.393 256.024C142.488 256.188 142.548 256.368 142.571 256.556C142.593 256.743 142.578 256.933 142.526 257.114C142.473 257.296 142.384 257.464 142.265 257.611C142.145 257.757 141.997 257.877 141.83 257.964L115.416 273.211C112.408 274.828 109.035 275.644 105.62 275.583Z" fill="#37474F"/>
<path d="M42.7579 19.5164C42.7372 19.4216 42.7364 19.3234 42.7557 19.2283C42.775 19.1331 42.8139 19.043 42.8699 18.9636C42.9226 18.8807 42.9922 18.8098 43.0742 18.7555C43.1562 18.7013 43.2487 18.6649 43.3457 18.6488L46.7463 17.991C46.8422 17.9693 46.9416 17.968 47.0381 17.9873C47.1345 18.0066 47.2258 18.046 47.306 18.103C47.4686 18.2149 47.5815 18.3854 47.6209 18.5788L48.1457 21.3077C48.1654 21.403 48.165 21.5014 48.1445 21.5966C48.1241 21.6918 48.0839 21.7817 48.0267 21.8605C47.9755 21.9439 47.9073 22.0157 47.8265 22.0712C47.7458 22.1266 47.6543 22.1645 47.5579 22.1823L44.1503 22.8331C44.0555 22.8538 43.9573 22.8545 43.8622 22.8352C43.767 22.816 43.6769 22.7771 43.5976 22.7211C43.5146 22.6684 43.4437 22.5987 43.3894 22.5168C43.3352 22.4348 43.2988 22.3423 43.2827 22.2453L42.7579 19.5164ZM39.9171 4.78047C39.8978 4.68441 39.8977 4.58548 39.9168 4.48939C39.936 4.39329 39.974 4.30195 40.0286 4.22062C40.0833 4.1393 40.1535 4.06961 40.2352 4.01558C40.317 3.96154 40.4086 3.92425 40.5048 3.90583L43.9124 3.2481C44.0078 3.22838 44.1062 3.22877 44.2014 3.24926C44.2965 3.26974 44.3864 3.30986 44.4652 3.36705C44.5474 3.41903 44.6178 3.48756 44.672 3.56828C44.7262 3.649 44.763 3.74013 44.7801 3.83586L47.0122 15.5001C47.0319 15.5954 47.0315 15.6938 47.011 15.789C46.9905 15.8842 46.9504 15.9741 46.8932 16.0528C46.8412 16.135 46.7727 16.2055 46.692 16.2597C46.6113 16.3139 46.5201 16.3507 46.4244 16.3677L43.0168 17.0254C42.9215 17.0452 42.823 17.0448 42.7279 17.0243C42.6327 17.0038 42.5428 16.9637 42.464 16.9065C42.3818 16.8545 42.3114 16.786 42.2572 16.7053C42.203 16.6245 42.1662 16.5334 42.1492 16.4377L39.9171 4.78047Z" fill="#16B3AC"/>
<path d="M37.0762 30.9357C37.0108 30.8632 36.9603 30.7785 36.9277 30.6865C36.8951 30.5944 36.881 30.4968 36.8862 30.3993C36.8914 30.3018 36.9158 30.2063 36.958 30.1182C37.0002 30.0301 37.0594 29.9513 37.1322 29.8862L39.7141 27.5701C39.7862 27.5038 39.8714 27.4533 39.9642 27.4219C40.057 27.3906 40.1553 27.3791 40.2529 27.3882C40.3499 27.3903 40.4454 27.4125 40.5333 27.4534C40.6212 27.4944 40.6997 27.5532 40.7637 27.6261L42.6179 29.7252C42.6833 29.7977 42.7338 29.8824 42.7664 29.9745C42.799 30.0665 42.8131 30.1641 42.8079 30.2616C42.8027 30.3592 42.7783 30.4547 42.7361 30.5427C42.6939 30.6308 42.6347 30.7097 42.5619 30.7748L40.015 33.0629C39.9429 33.1292 39.8577 33.1797 39.7649 33.211C39.6721 33.2424 39.5737 33.2539 39.4762 33.2448C39.3792 33.2427 39.2837 33.2205 39.1958 33.1795C39.1079 33.1386 39.0294 33.0798 38.9654 33.0069L37.0762 30.9357ZM27.0633 19.7403C26.9316 19.5927 26.8637 19.399 26.8744 19.2015C26.8773 19.104 26.9007 19.0082 26.9428 18.9203C26.985 18.8323 27.0451 18.7541 27.1193 18.6908L29.7012 16.3747C29.7727 16.3071 29.8576 16.2553 29.9505 16.2228C30.0433 16.1902 30.142 16.1776 30.24 16.1858C30.3375 16.1887 30.4333 16.2121 30.5213 16.2542C30.6093 16.2964 30.6874 16.3565 30.7508 16.4307L38.6715 25.289C38.7379 25.3611 38.7884 25.4463 38.8197 25.5391C38.851 25.6319 38.8625 25.7303 38.8535 25.8278C38.8514 25.9248 38.8292 26.0203 38.7882 26.1082C38.7472 26.1962 38.6885 26.2746 38.6156 26.3386L36.0266 28.6547C35.9554 28.7201 35.8713 28.7701 35.7798 28.8014C35.6883 28.8327 35.5912 28.8447 35.4948 28.8366C35.3967 28.8355 35.2998 28.8137 35.2106 28.7727C35.1214 28.7317 35.0418 28.6724 34.9771 28.5987L27.0633 19.7403Z" fill="#16B3AC"/>
<g opacity="0.6">
<path opacity="0.6" d="M37.0762 30.9357C37.0108 30.8632 36.9603 30.7785 36.9277 30.6865C36.8951 30.5944 36.881 30.4968 36.8862 30.3993C36.8914 30.3018 36.9158 30.2063 36.958 30.1182C37.0002 30.0301 37.0594 29.9513 37.1322 29.8862L39.7141 27.5701C39.7862 27.5038 39.8714 27.4533 39.9642 27.4219C40.057 27.3906 40.1553 27.3791 40.2529 27.3882C40.3499 27.3903 40.4454 27.4125 40.5333 27.4534C40.6212 27.4944 40.6997 27.5532 40.7637 27.6261L42.6179 29.7252C42.6833 29.7977 42.7338 29.8824 42.7664 29.9745C42.799 30.0665 42.8131 30.1641 42.8079 30.2616C42.8027 30.3592 42.7783 30.4547 42.7361 30.5427C42.6939 30.6308 42.6347 30.7097 42.5619 30.7748L40.015 33.0629C39.9429 33.1292 39.8577 33.1797 39.7649 33.211C39.6721 33.2424 39.5737 33.2539 39.4762 33.2448C39.3792 33.2427 39.2837 33.2205 39.1958 33.1795C39.1079 33.1386 39.0294 33.0798 38.9654 33.0069L37.0762 30.9357ZM27.0633 19.7403C26.9316 19.5927 26.8637 19.399 26.8744 19.2015C26.8773 19.104 26.9007 19.0082 26.9428 18.9203C26.985 18.8323 27.0451 18.7541 27.1193 18.6908L29.7012 16.3747C29.7727 16.3071 29.8576 16.2553 29.9505 16.2228C30.0433 16.1902 30.142 16.1776 30.24 16.1858C30.3375 16.1887 30.4333 16.2121 30.5213 16.2542C30.6093 16.2964 30.6874 16.3565 30.7508 16.4307L38.6715 25.289C38.7379 25.3611 38.7884 25.4463 38.8197 25.5391C38.851 25.6319 38.8625 25.7303 38.8535 25.8278C38.8514 25.9248 38.8292 26.0203 38.7882 26.1082C38.7472 26.1962 38.6885 26.2746 38.6156 26.3386L36.0266 28.6547C35.9554 28.7201 35.8713 28.7701 35.7798 28.8014C35.6883 28.8327 35.5912 28.8447 35.4948 28.8366C35.3967 28.8355 35.2998 28.8137 35.2106 28.7727C35.1214 28.7317 35.0418 28.6724 34.9771 28.5987L27.0633 19.7403Z" fill="white"/>
</g>
<path d="M124.988 28.2278C125.046 28.2272 125.103 28.2387 125.156 28.2616C125.209 28.2845 125.257 28.3183 125.296 28.3608C125.337 28.4008 125.369 28.4488 125.391 28.5017C125.412 28.5547 125.423 28.6115 125.422 28.6687V30.3899C125.423 30.4471 125.412 30.5039 125.391 30.5569C125.369 30.6098 125.337 30.6578 125.296 30.6978C125.257 30.7403 125.209 30.7741 125.156 30.797C125.103 30.8199 125.046 30.8314 124.988 30.8308H117.291C117.233 30.8318 117.176 30.8205 117.123 30.7976C117.07 30.7746 117.022 30.7406 116.983 30.6978C116.942 30.6581 116.908 30.6104 116.885 30.5575C116.863 30.5046 116.851 30.4476 116.85 30.3899V19.8943C116.851 19.8366 116.863 19.7796 116.885 19.7267C116.908 19.6738 116.942 19.6261 116.983 19.5864C117.022 19.5436 117.07 19.5095 117.123 19.4866C117.176 19.4637 117.233 19.4524 117.291 19.4534H124.869C124.985 19.4569 125.095 19.5045 125.177 19.5864C125.259 19.6684 125.306 19.7785 125.31 19.8943V21.6086C125.311 21.6674 125.299 21.7257 125.276 21.7799C125.253 21.8341 125.22 21.8829 125.177 21.9234C125.137 21.9643 125.089 21.9965 125.036 22.0182C124.983 22.0398 124.926 22.0505 124.869 22.0494H119.859V23.8057H124.512C124.57 23.8046 124.627 23.8159 124.681 23.8388C124.734 23.8618 124.781 23.8958 124.82 23.9386C124.862 23.9783 124.895 24.026 124.918 24.0789C124.941 24.1318 124.953 24.1888 124.953 24.2465V25.9678C124.953 26.0254 124.941 26.0824 124.918 26.1353C124.895 26.1882 124.862 26.236 124.82 26.2756C124.781 26.3185 124.734 26.3525 124.681 26.3754C124.627 26.3983 124.57 26.4096 124.512 26.4086H119.859V28.2278H124.988Z" fill="#16B3AC"/>
<path d="M132.139 19.4464C132.786 19.4378 133.43 19.5155 134.056 19.6774C134.577 19.8159 135.067 20.0535 135.498 20.3771C135.894 20.6847 136.206 21.0864 136.407 21.5456C136.627 22.0654 136.734 22.6258 136.722 23.1899C136.75 23.9003 136.575 24.604 136.218 25.2191C135.882 25.7558 135.396 26.1816 134.819 26.4436L136.834 30.313C136.865 30.3687 136.882 30.4312 136.883 30.4949C136.883 30.5896 136.846 30.6803 136.779 30.7472C136.712 30.8142 136.621 30.8518 136.526 30.8518H134.315C134.232 30.8602 134.149 30.8515 134.069 30.8262C133.99 30.801 133.916 30.7596 133.853 30.7048C133.766 30.6172 133.691 30.5184 133.63 30.4109L131.824 26.9124H130.278V30.4109C130.279 30.4681 130.268 30.5249 130.247 30.5779C130.225 30.6308 130.193 30.6788 130.152 30.7188C130.113 30.7613 130.065 30.7951 130.012 30.818C129.959 30.8409 129.902 30.8524 129.844 30.8518H127.745C127.687 30.8524 127.63 30.8409 127.577 30.818C127.524 30.7951 127.476 30.7613 127.437 30.7188C127.396 30.6788 127.364 30.6308 127.342 30.5779C127.321 30.5249 127.31 30.4681 127.311 30.4109V19.9153C127.31 19.8581 127.321 19.8013 127.342 19.7483C127.364 19.6954 127.396 19.6474 127.437 19.6074C127.476 19.5649 127.524 19.5311 127.577 19.5082C127.63 19.4853 127.687 19.4738 127.745 19.4744L132.139 19.4464ZM130.299 24.3444H132.139C132.533 24.3601 132.924 24.2708 133.273 24.0855C133.426 23.9838 133.548 23.8418 133.626 23.6752C133.704 23.5085 133.734 23.3237 133.713 23.1409C133.734 22.9591 133.704 22.7752 133.626 22.6096C133.548 22.444 133.426 22.3034 133.273 22.2033C132.924 22.0181 132.533 21.9287 132.139 21.9444H130.278L130.299 24.3444Z" fill="#16B3AC"/>
<path d="M143.439 19.4464C144.086 19.4378 144.731 19.5155 145.357 19.6774C145.878 19.8159 146.367 20.0535 146.798 20.3771C147.196 20.6828 147.509 21.085 147.708 21.5456C147.927 22.0654 148.035 22.6258 148.023 23.1899C148.05 23.9003 147.875 24.604 147.519 25.2191C147.183 25.7558 146.696 26.1816 146.119 26.4436L148.135 30.313C148.165 30.3687 148.182 30.4312 148.184 30.4949C148.184 30.5896 148.146 30.6803 148.079 30.7472C148.012 30.8142 147.921 30.8518 147.827 30.8518H145.616C145.533 30.8602 145.449 30.8515 145.369 30.8262C145.29 30.801 145.217 30.7596 145.154 30.7048C145.066 30.6172 144.991 30.5184 144.93 30.4109L143.125 26.9124H141.634V30.4109C141.634 30.4686 141.622 30.5256 141.599 30.5785C141.576 30.6314 141.543 30.6791 141.501 30.7188C141.462 30.7613 141.414 30.7951 141.361 30.818C141.308 30.8409 141.251 30.8524 141.193 30.8518H139.059C139.002 30.8524 138.944 30.8409 138.891 30.818C138.838 30.7951 138.791 30.7613 138.751 30.7188C138.711 30.6788 138.678 30.6308 138.657 30.5779C138.635 30.5249 138.624 30.4681 138.625 30.4109V19.9153C138.624 19.8581 138.635 19.8013 138.657 19.7483C138.678 19.6954 138.711 19.6474 138.751 19.6074C138.791 19.5649 138.838 19.5311 138.891 19.5082C138.944 19.4853 139.002 19.4738 139.059 19.4744L143.439 19.4464ZM141.606 24.3444H143.439C143.834 24.3601 144.225 24.2708 144.573 24.0855C144.726 23.9838 144.848 23.8418 144.926 23.6752C145.004 23.5085 145.034 23.3237 145.014 23.1409C145.035 22.9591 145.004 22.7752 144.926 22.6096C144.849 22.444 144.726 22.3034 144.573 22.2033C144.225 22.0181 143.834 21.9287 143.439 21.9444H141.606V24.3444Z" fill="#16B3AC"/>
<path d="M149.52 23.6937C149.55 23.1032 149.685 22.5227 149.919 21.9794C150.146 21.4474 150.485 20.9703 150.912 20.58C151.365 20.1648 151.895 19.8437 152.473 19.6354C153.845 19.1689 155.334 19.1689 156.706 19.6354C157.283 19.8454 157.813 20.1663 158.266 20.58C158.692 20.9706 159.028 21.4478 159.253 21.9794C159.493 22.5206 159.628 23.1022 159.652 23.6937C159.652 24.1555 159.687 24.6453 159.687 25.1561C159.687 25.6669 159.687 26.1427 159.652 26.5555C159.627 27.1491 159.492 27.7329 159.253 28.2768C159.022 28.8052 158.686 29.2812 158.266 29.6762C157.81 30.0917 157.275 30.4107 156.692 30.6139C155.318 31.0711 153.833 31.0711 152.459 30.6139C151.88 30.4106 151.349 30.0915 150.898 29.6762C150.476 29.2815 150.138 28.8055 149.905 28.2768C149.672 27.7308 149.537 27.1482 149.506 26.5555C149.506 26.1147 149.506 25.6389 149.506 25.1561C149.506 24.6733 149.499 24.1555 149.52 23.6937ZM156.657 26.4926C156.657 26.2966 156.657 26.0797 156.692 25.8418C156.727 25.6039 156.692 25.359 156.692 25.1071C156.692 24.8552 156.692 24.6173 156.692 24.4074C156.692 24.1975 156.692 23.9666 156.657 23.7777C156.639 23.5233 156.583 23.2732 156.489 23.036C156.401 22.8127 156.268 22.6101 156.097 22.4412C155.919 22.2673 155.707 22.1316 155.475 22.0424C155.192 21.9393 154.893 21.8894 154.593 21.8954C154.295 21.8887 153.998 21.9385 153.718 22.0424C153.483 22.1299 153.268 22.2657 153.089 22.4412C152.92 22.6119 152.787 22.814 152.697 23.036C152.603 23.2732 152.547 23.5233 152.529 23.7777C152.529 23.9643 152.515 24.1742 152.487 24.4074C152.487 24.6383 152.487 24.8832 152.487 25.1071C152.487 25.331 152.487 25.6039 152.487 25.8418C152.487 26.0797 152.487 26.2966 152.529 26.4926C152.555 26.9935 152.753 27.4702 153.089 27.843C153.288 28.0326 153.525 28.178 153.784 28.2696C154.043 28.3612 154.319 28.3971 154.593 28.3748C154.866 28.3979 155.141 28.3624 155.399 28.2707C155.657 28.179 155.893 28.0332 156.09 27.843C156.42 27.4711 156.619 27.0019 156.657 26.5066V26.4926Z" fill="#16B3AC"/>
<path d="M166.418 19.4465C167.065 19.4383 167.709 19.516 168.335 19.6774C168.854 19.8152 169.342 20.0529 169.77 20.3771C170.168 20.6843 170.483 21.0859 170.686 21.5456C170.906 22.0654 171.013 22.6258 171.001 23.1899C171.029 23.9003 170.854 24.604 170.497 25.2191C170.153 25.7619 169.653 26.1885 169.063 26.4436L171.078 30.313C171.111 30.3684 171.13 30.4307 171.134 30.4949C171.134 30.5423 171.123 30.5891 171.104 30.6324C171.085 30.6757 171.057 30.7146 171.022 30.7468C170.99 30.7806 170.95 30.8074 170.907 30.8254C170.864 30.8435 170.817 30.8525 170.77 30.8518H168.559C168.476 30.8602 168.392 30.8515 168.313 30.8262C168.234 30.801 168.16 30.7596 168.097 30.7048C168.012 30.6174 167.939 30.5185 167.88 30.411L166.075 26.9124H164.564V30.411C164.56 30.5268 164.513 30.6368 164.431 30.7188C164.349 30.8007 164.239 30.8483 164.123 30.8518H162.024C161.908 30.8483 161.798 30.8007 161.716 30.7188C161.634 30.6368 161.587 30.5268 161.583 30.411V19.9153C161.587 19.7995 161.634 19.6894 161.716 19.6074C161.798 19.5255 161.908 19.478 162.024 19.4744L166.418 19.4465ZM164.578 24.3444H166.418C166.81 24.3602 167.199 24.2708 167.545 24.0855C167.7 23.9858 167.825 23.8444 167.904 23.6774C167.983 23.5104 168.014 23.3245 167.992 23.1409C168.013 22.9584 167.982 22.7737 167.903 22.6079C167.824 22.4421 167.7 22.3019 167.545 22.2033C167.199 22.018 166.81 21.9286 166.418 21.9444H164.564L164.578 24.3444Z" fill="#16B3AC"/>
<path d="M181.686 30.8308C181.627 30.8315 181.569 30.8201 181.514 30.7972C181.46 30.7743 181.411 30.7405 181.371 30.6978C181.33 30.6578 181.298 30.6098 181.276 30.5569C181.254 30.504 181.244 30.4471 181.245 30.39V28.7316H176.123C176.066 28.7327 176.009 28.7221 175.956 28.7005C175.903 28.6788 175.855 28.6466 175.815 28.6057C175.773 28.5652 175.739 28.5163 175.716 28.4621C175.693 28.408 175.682 28.3496 175.682 28.2908V26.5695C175.674 26.3196 175.747 26.0737 175.892 25.8698L180.755 19.7403C180.828 19.6452 180.918 19.5645 181.021 19.5024C181.128 19.4621 181.242 19.4431 181.357 19.4465H183.813C183.871 19.4454 183.928 19.4567 183.981 19.4796C184.034 19.5026 184.082 19.5366 184.121 19.5794C184.163 19.6191 184.196 19.6668 184.219 19.7197C184.242 19.7726 184.254 19.8296 184.254 19.8873V26.1287H185.653C185.769 26.1307 185.88 26.1785 185.961 26.2617C186.002 26.3017 186.034 26.3496 186.056 26.4026C186.077 26.4555 186.088 26.5123 186.087 26.5695V28.2908C186.088 28.4082 186.043 28.5213 185.961 28.6057C185.921 28.6459 185.872 28.6777 185.82 28.6993C185.767 28.721 185.71 28.7319 185.653 28.7316H184.254V30.39C184.254 30.4476 184.242 30.5046 184.219 30.5575C184.196 30.6104 184.163 30.6581 184.121 30.6978C184.082 30.7406 184.034 30.7747 183.981 30.7976C183.928 30.8205 183.871 30.8318 183.813 30.8308H181.686ZM181.357 26.1287V23.1409L178.985 26.1287H181.357Z" fill="#16B3AC"/>
<path d="M192.202 19.2995C192.919 19.2831 193.631 19.4042 194.302 19.6564C194.848 19.8706 195.344 20.1972 195.757 20.615C196.139 21.0156 196.433 21.4925 196.618 22.0144C196.808 22.5581 196.921 23.1257 196.954 23.7007C196.954 24.1625 196.954 24.6523 196.954 25.1631C196.954 25.6739 196.954 26.1497 196.954 26.5625C196.921 27.1375 196.808 27.7052 196.618 28.2488C196.436 28.7722 196.142 29.2497 195.757 29.6483C195.344 30.0661 194.848 30.3927 194.302 30.6069C192.943 31.0826 191.462 31.0826 190.103 30.6069C189.556 30.3927 189.061 30.0661 188.648 29.6483C188.263 29.2497 187.969 28.7722 187.787 28.2488C187.597 27.7052 187.484 27.1375 187.451 26.5625C187.451 26.1217 187.451 25.6459 187.451 25.1631C187.451 24.6803 187.451 24.1625 187.451 23.7007C187.484 23.1257 187.597 22.5581 187.787 22.0144C187.972 21.4925 188.266 21.0156 188.648 20.615C189.061 20.1972 189.556 19.8706 190.103 19.6564C190.774 19.4042 191.486 19.2831 192.202 19.2995ZM193.952 26.5066C193.994 25.5829 193.994 24.6733 193.952 23.7707C193.934 23.52 193.892 23.2716 193.826 23.029C193.774 22.8137 193.679 22.6112 193.546 22.4342C193.405 22.2614 193.225 22.1247 193.021 22.0354C192.764 21.9294 192.487 21.8793 192.209 21.8884C191.932 21.8799 191.655 21.93 191.398 22.0354C191.194 22.1247 191.014 22.2614 190.873 22.4342C190.74 22.6124 190.643 22.8143 190.586 23.029C190.516 23.2704 190.476 23.5195 190.467 23.7707C190.418 24.682 190.418 25.5953 190.467 26.5066C190.479 26.7589 190.514 27.0095 190.572 27.2552C190.63 27.4709 190.73 27.6731 190.866 27.85C191.009 28.0212 191.192 28.1555 191.398 28.2418C191.655 28.3472 191.932 28.3973 192.209 28.3888C192.487 28.398 192.764 28.3479 193.021 28.2418C193.227 28.1555 193.409 28.0212 193.553 27.85C193.689 27.6731 193.789 27.4709 193.847 27.2552C193.905 27.0095 193.94 26.7589 193.952 26.5066Z" fill="#16B3AC"/>
<path d="M204.301 30.8308C204.185 30.8273 204.075 30.7797 203.993 30.6978C203.911 30.6159 203.863 30.5058 203.86 30.39V28.7316H198.738C198.681 28.7327 198.624 28.7221 198.571 28.7005C198.518 28.6788 198.47 28.6466 198.43 28.6057C198.346 28.522 198.299 28.4091 198.297 28.2908V26.5695C198.287 26.3183 198.364 26.0714 198.514 25.8698L203.37 19.7403C203.444 19.6431 203.536 19.5622 203.643 19.5024C203.747 19.4614 203.859 19.4423 203.972 19.4465H206.428C206.543 19.45 206.654 19.4975 206.735 19.5795C206.817 19.6614 206.865 19.7715 206.868 19.8873V26.1287H208.268C208.384 26.1322 208.494 26.1798 208.576 26.2617C208.658 26.3436 208.705 26.4537 208.709 26.5695V28.2908C208.707 28.4091 208.659 28.522 208.576 28.6057C208.536 28.6466 208.488 28.6788 208.435 28.7005C208.382 28.7221 208.325 28.7327 208.268 28.7316H206.868V30.39C206.865 30.5058 206.817 30.6159 206.735 30.6978C206.654 30.7797 206.543 30.8273 206.428 30.8308H204.301ZM203.944 26.1287V23.1409L201.572 26.1287H203.944Z" fill="#16B3AC"/>
</svg>
