<svg xmlns="http://www.w3.org/2000/svg" xmlns:xlink="http://www.w3.org/1999/xlink" zoomAndPan="magnify" preserveAspectRatio="xMidYMid meet" version="1.0" viewBox="38.88 149.22 280.2 96.07"><defs><g/><clipPath id="4ea85c8f2c"><path d="M 38 149 L 106 149 L 106 197 L 38 197 Z M 38 149 " clip-rule="nonzero"/></clipPath><clipPath id="39f58ba897"><path d="M 31.632812 164.265625 L 102.171875 139.316406 L 114.902344 175.304688 L 44.363281 200.253906 Z M 31.632812 164.265625 " clip-rule="nonzero"/></clipPath><clipPath id="824c0889b5"><path d="M 31.632812 164.265625 L 102.171875 139.316406 L 114.902344 175.304688 L 44.363281 200.253906 Z M 31.632812 164.265625 " clip-rule="nonzero"/></clipPath></defs><g clip-path="url(#4ea85c8f2c)"><g clip-path="url(#39f58ba897)"><g clip-path="url(#824c0889b5)"><path fill="#2b2157" d="M 58.324219 195.488281 C 58.394531 195.328125 58.382812 195.082031 58.285156 194.695312 C 58.019531 193.640625 58.058594 193.542969 58.617188 193.824219 C 59.464844 194.25 60.367188 193.933594 60.136719 193.292969 C 60.101562 193.1875 59.78125 192.703125 59.425781 192.214844 C 58.859375 191.429688 57.984375 190.484375 55.683594 188.148438 C 55.128906 187.585938 55.046875 187.46875 55.042969 187.230469 C 55.042969 186.835938 54.726562 186.007812 54.417969 185.578125 C 54.269531 185.378906 53.984375 185.109375 53.78125 184.980469 C 53.324219 184.695312 53.410156 184.625 54.265625 184.578125 C 55.136719 184.53125 57.613281 184.273438 58.914062 184.097656 C 60.042969 183.941406 62.457031 183.261719 62.882812 182.980469 C 62.992188 182.910156 63.179688 182.667969 63.296875 182.449219 C 63.417969 182.230469 63.546875 182.074219 63.589844 182.105469 C 63.726562 182.21875 65.074219 184.316406 65.667969 185.34375 L 66.265625 186.375 L 66.09375 186.992188 C 65.316406 189.804688 65.132812 190.835938 65.222656 191.894531 C 65.273438 192.464844 65.429688 192.726562 65.75 192.773438 C 66.257812 192.851562 66.46875 192.503906 66.453125 191.617188 C 66.4375 190.78125 66.554688 189.996094 66.851562 188.890625 C 66.996094 188.359375 67.121094 187.902344 67.128906 187.875 C 67.140625 187.847656 67.273438 187.792969 67.429688 187.746094 C 67.703125 187.671875 68.113281 187.308594 68.457031 186.835938 C 68.546875 186.714844 69.03125 186.152344 69.535156 185.582031 C 72.410156 182.347656 73.757812 180.875 74.535156 180.132812 C 77.570312 177.226562 81.554688 174.632812 85.105469 173.246094 C 86.78125 172.59375 88.019531 172.273438 89.871094 172.007812 C 91.757812 171.738281 92.582031 171.699219 94.542969 171.777344 C 95.519531 171.816406 96.402344 171.804688 96.558594 171.75 C 97.160156 171.535156 97.230469 170.949219 96.691406 170.648438 C 96.410156 170.496094 93.570312 170.335938 92.203125 170.398438 C 91.160156 170.445312 89.199219 170.710938 87.894531 170.984375 C 83.878906 171.816406 78.875 174.527344 74.773438 178.09375 C 74.179688 178.609375 73.671875 179.019531 73.644531 179.007812 C 73.617188 178.996094 73.613281 178.804688 73.636719 178.589844 C 73.738281 177.664062 73.070312 176.96875 72.09375 176.992188 C 71.167969 177.011719 70.066406 178.039062 69 179.882812 C 68.761719 180.296875 68.535156 180.648438 68.5 180.65625 C 68.25 180.734375 67.605469 180.285156 67.488281 179.957031 C 67.238281 179.246094 67.339844 177.074219 67.691406 175.71875 C 68.449219 172.792969 68.476562 172.652344 68.429688 172.097656 C 68.375 171.402344 68.199219 171.128906 67.734375 171.007812 C 67.257812 170.882812 67.027344 170.996094 66.382812 171.660156 C 65.894531 172.167969 65.726562 172.441406 65.097656 173.75 C 64.613281 174.765625 64.214844 175.785156 63.878906 176.878906 C 63.605469 177.773438 63.347656 178.542969 63.308594 178.59375 C 63.253906 178.65625 63.171875 178.46875 63.003906 177.898438 C 62.726562 176.9375 62.730469 176.023438 63.019531 174.84375 C 63.441406 173.136719 64.066406 172.40625 66.601562 170.683594 C 67.152344 170.308594 68.332031 169.480469 69.222656 168.84375 C 70.921875 167.625 71.953125 166.988281 73.191406 166.390625 C 74.9375 165.542969 76.074219 164.980469 77.578125 164.214844 C 79.070312 163.457031 79.242188 163.386719 80.234375 163.136719 C 83.074219 162.417969 84.886719 162.574219 86.726562 163.691406 C 87.738281 164.304688 88.589844 165.050781 89.222656 165.871094 L 89.789062 166.605469 L 89.695312 167.171875 C 89.597656 167.761719 89.683594 168.171875 89.972656 168.511719 C 90.195312 168.777344 91.683594 169.507812 92.042969 169.53125 C 92.597656 169.566406 93.175781 168.984375 93.019531 168.546875 C 92.988281 168.449219 92.636719 167.992188 92.246094 167.53125 C 91.855469 167.070312 91.523438 166.660156 91.511719 166.621094 C 91.464844 166.488281 92.363281 165.503906 93.480469 164.46875 C 95.101562 162.957031 96.308594 161.679688 97.867188 159.808594 C 100.511719 156.640625 103.035156 153.898438 103.9375 153.203125 C 104.394531 152.851562 105.15625 151.863281 105.460938 151.230469 C 105.859375 150.390625 105.804688 149.84375 105.277344 149.4375 C 104.878906 149.132812 103.886719 149.1875 102.082031 149.617188 C 101.59375 149.734375 100.800781 149.894531 100.316406 149.96875 C 99.433594 150.105469 98.074219 150.34375 95.191406 150.859375 C 94.335938 151.011719 93.066406 151.234375 92.371094 151.347656 C 91.679688 151.460938 90.625 151.648438 90.03125 151.761719 C 88.457031 152.066406 87.390625 152.199219 85.621094 152.316406 C 84.757812 152.375 82.773438 152.515625 81.21875 152.632812 C 79.664062 152.746094 77.84375 152.875 77.175781 152.914062 C 76.503906 152.953125 74.949219 153.0625 73.722656 153.15625 C 70.910156 153.371094 70.425781 153.382812 68.878906 153.265625 C 66.609375 153.089844 63.023438 153.167969 62.625 153.402344 C 62.214844 153.640625 61.703125 154.15625 61.085938 154.96875 C 60.773438 155.378906 59.964844 156.40625 59.289062 157.25 C 58.617188 158.097656 57.558594 159.441406 56.941406 160.238281 C 56.324219 161.03125 55.304688 162.277344 54.675781 163.007812 C 54.046875 163.734375 53.039062 164.921875 52.429688 165.644531 C 51.824219 166.367188 51.15625 167.164062 50.941406 167.417969 C 50.726562 167.671875 50.222656 168.355469 49.820312 168.9375 C 49.105469 169.976562 47.804688 171.585938 47.625 171.648438 C 47.578125 171.664062 47.417969 171.578125 47.269531 171.453125 C 46.804688 171.066406 46.144531 171.300781 45.828125 171.964844 C 45.621094 172.398438 45.648438 172.78125 45.941406 173.394531 C 46.105469 173.738281 46.121094 173.855469 46.042969 174.042969 C 45.988281 174.167969 45.84375 174.304688 45.71875 174.351562 C 45.320312 174.496094 44.558594 175.03125 44.058594 175.523438 C 43.789062 175.789062 43.140625 176.609375 42.617188 177.351562 C 42.09375 178.089844 41.25 179.273438 40.742188 179.976562 C 39.121094 182.230469 38.664062 183.460938 38.988281 184.726562 C 39.113281 185.214844 39.136719 185.25 39.453125 185.398438 C 40.023438 185.671875 40.210938 185.605469 41.078125 184.828125 C 41.28125 184.648438 41.367188 184.648438 42.734375 184.824219 C 44.757812 185.082031 46.941406 185.140625 49.121094 184.992188 C 50.648438 184.890625 51.007812 184.894531 51.097656 185.011719 C 51.175781 185.117188 51.164062 185.214844 51.054688 185.355469 C 50.589844 185.957031 50.417969 186.964844 50.65625 187.675781 C 50.847656 188.242188 51.144531 188.449219 51.753906 188.441406 C 52.273438 188.4375 52.210938 188.320312 52.613281 189.980469 C 53.003906 191.566406 53.980469 194.09375 54.507812 194.855469 C 55.207031 195.875 55.773438 196.230469 56.21875 195.933594 C 56.335938 195.855469 56.433594 195.675781 56.460938 195.5 L 56.5 195.195312 L 56.964844 195.460938 C 57.425781 195.726562 57.867188 195.84375 58.101562 195.761719 C 58.171875 195.738281 58.269531 195.613281 58.324219 195.488281 Z M 56.597656 193.898438 C 56.421875 193.683594 56.191406 193.347656 56.085938 193.160156 C 55.8125 192.667969 55.679688 192.566406 55.414062 192.660156 C 55.125 192.761719 55.011719 193.023438 55.078125 193.445312 C 55.105469 193.628906 55.109375 193.800781 55.082031 193.835938 C 54.867188 194.101562 53.59375 190.570312 53.292969 188.875 C 53.230469 188.535156 53.339844 188.417969 53.578125 188.558594 C 53.664062 188.609375 53.90625 188.589844 54.183594 188.507812 L 54.652344 188.371094 L 55.769531 189.539062 C 56.386719 190.183594 57.046875 190.859375 57.242188 191.042969 C 57.78125 191.550781 58.617188 192.617188 58.546875 192.707031 C 58.511719 192.746094 58.320312 192.644531 58.125 192.480469 C 57.488281 191.949219 57.300781 191.863281 57.078125 192.011719 C 56.800781 192.195312 56.792969 192.421875 57.019531 193.363281 C 57.128906 193.816406 57.21875 194.242188 57.222656 194.316406 C 57.226562 194.523438 56.972656 194.355469 56.597656 193.898438 Z M 68.148438 184.941406 C 68.082031 184.757812 69.074219 182.234375 69.273438 182.085938 C 69.347656 182.03125 69.554688 181.980469 69.738281 181.976562 C 69.921875 181.972656 70.257812 181.929688 70.488281 181.878906 C 70.71875 181.832031 70.921875 181.824219 70.9375 181.863281 C 70.96875 181.933594 68.363281 184.945312 68.234375 184.992188 C 68.199219 185.003906 68.160156 184.980469 68.148438 184.941406 Z M 66.734375 184.441406 C 66.683594 184.371094 66.398438 183.921875 66.097656 183.445312 C 65.800781 182.96875 65.230469 182.085938 64.832031 181.484375 L 64.109375 180.394531 L 64.613281 178.707031 C 64.890625 177.78125 65.273438 176.574219 65.464844 176.023438 C 65.8125 175.027344 66.839844 172.867188 66.992188 172.8125 C 67.175781 172.746094 67.128906 173.074219 66.777344 174.324219 C 66.121094 176.660156 65.925781 179.179688 66.3125 180.277344 C 66.542969 180.925781 66.808594 181.242188 67.441406 181.613281 L 67.910156 181.886719 L 67.777344 182.246094 C 67.703125 182.441406 67.484375 183.035156 67.289062 183.5625 C 67.097656 184.09375 66.914062 184.535156 66.882812 184.546875 C 66.855469 184.558594 66.785156 184.511719 66.734375 184.441406 Z M 52.875 186.417969 C 52.828125 186.054688 52.824219 185.71875 52.863281 185.671875 C 52.964844 185.542969 53.542969 185.898438 53.777344 186.242188 C 54.125 186.746094 54.117188 186.898438 53.734375 187.039062 C 53.558594 187.105469 53.351562 187.230469 53.277344 187.3125 C 53.164062 187.441406 53.136719 187.4375 53.050781 187.269531 C 53 187.164062 52.917969 186.78125 52.875 186.417969 Z M 51.507812 187.316406 C 51.40625 187.101562 51.5 186.390625 51.648438 186.277344 C 51.761719 186.1875 51.917969 186.617188 51.953125 187.09375 C 51.972656 187.375 51.941406 187.445312 51.789062 187.476562 C 51.660156 187.5 51.570312 187.453125 51.507812 187.316406 Z M 70.09375 180.660156 C 69.910156 180.511719 71.121094 178.839844 71.683594 178.460938 C 72.339844 178.015625 72.550781 178.246094 72.210938 179.035156 C 71.984375 179.566406 71.660156 179.957031 71.207031 180.246094 C 70.828125 180.492188 70.179688 180.730469 70.09375 180.660156 Z M 59.875 182.65625 C 58.542969 182.9375 55.226562 183.3125 53.136719 183.421875 L 52.539062 183.453125 L 52.269531 182.832031 C 52.113281 182.476562 51.613281 181.648438 51.085938 180.878906 L 50.175781 179.542969 L 49.53125 177.746094 C 49.179688 176.753906 48.726562 175.441406 48.527344 174.828125 C 48.328125 174.214844 48.128906 173.648438 48.082031 173.566406 C 47.992188 173.414062 48.289062 173.007812 49.621094 171.441406 C 49.933594 171.070312 50.511719 170.296875 50.90625 169.722656 C 51.300781 169.148438 51.996094 168.246094 52.457031 167.71875 C 52.914062 167.195312 53.359375 166.667969 53.445312 166.546875 C 53.53125 166.425781 54.363281 165.441406 55.292969 164.355469 C 56.226562 163.269531 57.449219 161.785156 58.011719 161.058594 C 58.574219 160.332031 59.542969 159.101562 60.160156 158.324219 C 60.78125 157.550781 61.6875 156.390625 62.179688 155.746094 L 63.070312 154.578125 L 65.039062 154.542969 C 66.121094 154.519531 67.839844 154.554688 68.855469 154.617188 C 70.695312 154.730469 71.667969 154.695312 75.527344 154.375 C 76.363281 154.304688 77.4375 154.230469 77.910156 154.210938 C 78.9375 154.167969 81.625 153.980469 83.304688 153.835938 C 83.96875 153.78125 85.066406 153.699219 85.746094 153.660156 C 87.210938 153.570312 88.679688 153.390625 90.097656 153.125 C 90.667969 153.015625 91.9375 152.792969 92.917969 152.628906 C 93.898438 152.460938 95.320312 152.210938 96.082031 152.070312 C 97.609375 151.785156 98.839844 151.570312 100.679688 151.261719 C 101.347656 151.148438 102.375 150.953125 102.957031 150.824219 C 103.542969 150.695312 104.074219 150.617188 104.136719 150.648438 C 104.359375 150.753906 104.015625 151.148438 101.320312 153.859375 C 100.445312 154.738281 98.414062 157.042969 96.851562 158.933594 C 95.574219 160.476562 93.898438 162.261719 92.703125 163.351562 C 92.320312 163.699219 91.710938 164.292969 91.351562 164.667969 C 90.992188 165.042969 90.664062 165.359375 90.628906 165.371094 C 90.589844 165.386719 90.421875 165.21875 90.257812 164.996094 C 88.859375 163.136719 86.226562 161.589844 84.078125 161.367188 C 82.1875 161.167969 79.292969 161.8125 77.164062 162.90625 C 76.691406 163.148438 75.265625 163.863281 73.992188 164.492188 C 71.230469 165.859375 70.285156 166.414062 68.410156 167.757812 C 67.628906 168.320312 66.457031 169.144531 65.804688 169.59375 C 63.609375 171.105469 62.832031 171.855469 62.222656 173.050781 C 61.875 173.734375 61.730469 174.164062 61.464844 175.320312 C 61.355469 175.796875 61.410156 176.976562 61.582031 177.851562 C 61.714844 178.53125 62.183594 179.78125 62.558594 180.460938 C 62.695312 180.707031 62.683594 180.78125 62.414062 181.363281 L 62.121094 181.996094 L 61.449219 182.230469 C 61.082031 182.363281 60.371094 182.554688 59.878906 182.65625 Z M 51.253906 183.507812 C 51.097656 183.414062 50.199219 182.027344 49.800781 181.261719 C 49.160156 180.035156 48.109375 177.777344 47.886719 177.144531 C 47.625 176.40625 47.308594 175.066406 47.316406 174.734375 C 47.320312 174.617188 47.363281 174.503906 47.417969 174.484375 C 47.484375 174.460938 47.582031 174.695312 47.769531 175.351562 C 48.730469 178.675781 49.097656 179.589844 50.019531 180.933594 C 51.070312 182.460938 51.253906 182.753906 51.386719 183.136719 C 51.53125 183.535156 51.492188 183.648438 51.253906 183.507812 Z M 48.550781 183.792969 C 46.15625 183.945312 42.476562 183.722656 42.371094 183.421875 C 42.351562 183.371094 42.449219 183.199219 42.582031 183.042969 C 43.191406 182.335938 44.5625 180.09375 45.820312 177.761719 C 46.242188 176.984375 46.605469 176.339844 46.628906 176.332031 C 46.652344 176.320312 46.859375 176.847656 47.089844 177.496094 C 47.628906 179.023438 49.027344 181.929688 49.703125 182.925781 C 50 183.363281 50.136719 183.65625 50.058594 183.683594 C 50.03125 183.695312 49.355469 183.742188 48.550781 183.792969 Z M 40.335938 183.398438 C 40.261719 183.195312 40.761719 182.292969 41.589844 181.117188 C 43.84375 177.933594 44.582031 176.929688 44.65625 176.960938 C 44.769531 177.019531 42.917969 180.238281 42.042969 181.503906 C 41.671875 182.039062 40.496094 183.472656 40.398438 183.507812 C 40.386719 183.511719 40.359375 183.464844 40.335938 183.398438 Z M 40.335938 183.398438 " fill-opacity="1" fill-rule="nonzero"/></g></g></g><g fill="#2b2157" fill-opacity="1"><g transform="translate(71.073924, 217.625878)"><g><path d="M 30.429688 -11.332031 C 30.429688 -19.34375 23.738281 -20.808594 17.976562 -22.273438 C 11.871094 -23.835938 9.035156 -24.617188 9.035156 -27.941406 C 9.035156 -30.722656 11.039062 -32.53125 15.53125 -32.53125 C 18.21875 -32.53125 20.320312 -31.800781 22.324219 -30.480469 C 23.054688 -29.992188 23.886719 -29.746094 24.667969 -29.746094 C 26.230469 -29.746094 27.792969 -31.015625 27.792969 -32.824219 C 27.792969 -36.242188 20.074219 -38.394531 15.777344 -38.394531 C 8.304688 -38.394531 2.636719 -34.191406 2.636719 -27.304688 C 2.636719 -19.976562 8.988281 -18.464844 14.359375 -17 C 20.90625 -15.238281 24.082031 -14.3125 24.082031 -10.453125 C 24.082031 -7.035156 21.492188 -5.128906 16.511719 -5.128906 C 13.042969 -5.128906 10.503906 -6.105469 8.253906 -7.863281 C 7.523438 -8.449219 6.691406 -8.742188 5.863281 -8.742188 C 4.25 -8.742188 2.636719 -7.375 2.636719 -5.570312 C 2.636719 -4.933594 2.832031 -4.347656 3.371094 -3.90625 C 6.546875 -1.222656 10.894531 0.585938 16.460938 0.585938 C 25.449219 0.585938 30.429688 -4.445312 30.429688 -11.332031 Z M 30.429688 -11.332031 "/></g></g></g><g fill="#2b2157" fill-opacity="1"><g transform="translate(102.916145, 217.625878)"><g><path d="M 3.957031 -23.105469 L 3.957031 -2.832031 C 3.957031 -1.125 5.375 0.292969 7.082031 0.292969 C 8.792969 0.292969 10.207031 -1.125 10.207031 -2.832031 L 10.207031 -23.105469 C 10.207031 -24.8125 8.792969 -26.230469 7.082031 -26.230469 C 5.375 -26.230469 3.957031 -24.8125 3.957031 -23.105469 Z M 3.957031 -35.753906 L 3.957031 -32.777344 C 3.957031 -31.703125 4.882812 -30.773438 5.960938 -30.773438 L 8.15625 -30.773438 C 9.28125 -30.773438 10.207031 -31.703125 10.207031 -32.777344 L 10.207031 -35.753906 C 10.207031 -36.878906 9.28125 -37.808594 8.15625 -37.808594 L 5.960938 -37.808594 C 4.882812 -37.808594 3.957031 -36.878906 3.957031 -35.753906 Z M 3.957031 -35.753906 "/></g></g></g><g fill="#2b2157" fill-opacity="1"><g transform="translate(117.079085, 217.625878)"><g><path d="M 7.523438 -7.277344 L 6.59375 -8.011719 C 6.007812 -8.449219 5.324219 -8.695312 4.6875 -8.695312 C 3.125 -8.695312 1.613281 -7.375 1.613281 -5.617188 C 1.613281 -2.492188 7.035156 0.585938 12.75 0.585938 C 20.757812 0.585938 25.203125 -5.128906 25.203125 -12.796875 L 25.203125 -34.828125 C 25.203125 -36.636719 23.738281 -38.101562 21.933594 -38.101562 C 20.125 -38.101562 18.660156 -36.636719 18.660156 -34.828125 L 18.660156 -13.433594 C 18.660156 -8.304688 16.265625 -5.8125 12.308594 -5.8125 C 10.355469 -5.8125 8.890625 -6.203125 7.523438 -7.277344 Z M 7.523438 -7.277344 "/></g></g></g><g fill="#2b2157" fill-opacity="1"><g transform="translate(144.965428, 217.625878)"><g><path d="M 4.347656 -12.015625 C 4.347656 -3.808594 10.402344 0.585938 17.585938 0.585938 C 24.714844 0.585938 30.773438 -3.808594 30.773438 -12.015625 L 30.773438 -34.828125 C 30.773438 -36.636719 29.308594 -38.101562 27.5 -38.101562 C 25.691406 -38.101562 24.226562 -36.636719 24.226562 -34.828125 L 24.226562 -12.652344 C 24.226562 -8.011719 21.589844 -5.375 17.390625 -5.375 C 13.238281 -5.375 10.894531 -8.011719 10.894531 -12.601562 L 10.894531 -34.828125 C 10.894531 -36.636719 9.425781 -38.101562 7.621094 -38.101562 C 5.8125 -38.101562 4.347656 -36.636719 4.347656 -34.828125 Z M 4.347656 -12.015625 "/></g></g></g><g fill="#2b2157" fill-opacity="1"><g transform="translate(180.07977, 217.625878)"><g><path d="M 4.882812 -35.753906 L 4.882812 -2.980469 C 4.882812 -1.171875 6.351562 0.292969 8.15625 0.292969 C 9.964844 0.292969 11.429688 -1.171875 11.429688 -2.980469 L 11.429688 -15.289062 L 16.804688 -15.289062 L 24.179688 -1.417969 C 24.714844 -0.34375 25.691406 0.292969 26.964844 0.292969 C 28.769531 0.292969 30.136719 -1.222656 30.136719 -2.882812 C 30.136719 -3.417969 29.992188 -3.957031 29.746094 -4.445312 L 22.761719 -17.046875 C 26.476562 -18.367188 29.601562 -21.980469 29.601562 -27.648438 C 29.601562 -35.363281 23.789062 -37.808594 16.460938 -37.808594 L 6.886719 -37.808594 C 5.8125 -37.808594 4.882812 -36.878906 4.882812 -35.753906 Z M 11.429688 -31.996094 L 16.363281 -31.996094 C 21.394531 -31.996094 22.957031 -30.089844 22.957031 -26.769531 C 22.957031 -22.910156 20.808594 -21.101562 17.292969 -21.101562 L 11.429688 -21.101562 Z M 11.429688 -31.996094 "/></g></g></g><g fill="#2b2157" fill-opacity="1"><g transform="translate(213.240601, 217.625878)"><g><path d="M 10.796875 -2.882812 L 10.796875 -29.746094 L 25.839844 -1.5625 C 26.476562 -0.390625 27.597656 0.292969 28.917969 0.292969 C 30.871094 0.292969 32.433594 -1.269531 32.433594 -3.222656 L 32.433594 -34.925781 C 32.433594 -36.683594 31.015625 -38.101562 29.257812 -38.101562 C 27.5 -38.101562 26.082031 -36.683594 26.082031 -34.925781 L 26.082031 -13.238281 L 14.75 -35.167969 C 13.773438 -37.027344 12.015625 -38.101562 9.914062 -38.101562 C 6.839844 -38.101562 4.394531 -35.558594 4.394531 -32.582031 L 4.394531 -2.882812 C 4.394531 -1.125 5.8125 0.292969 7.570312 0.292969 C 9.378906 0.292969 10.796875 -1.125 10.796875 -2.882812 Z M 10.796875 -2.882812 "/></g></g></g><g fill="#2b2157" fill-opacity="1"><g transform="translate(250.11309, 217.625878)"><g><path d="M 11.773438 -15.730469 L 16.851562 -30.96875 L 21.6875 -15.730469 Z M 23.542969 -9.914062 L 26.378906 -1.710938 C 26.769531 -0.488281 27.890625 0.292969 29.210938 0.292969 C 30.871094 0.292969 32.140625 -1.074219 32.140625 -2.636719 C 32.140625 -2.980469 32.09375 -3.273438 31.996094 -3.613281 L 21.589844 -34.679688 C 20.90625 -36.78125 19.050781 -38.101562 16.851562 -38.101562 C 14.605469 -38.101562 12.75 -36.78125 12.066406 -34.730469 L 1.367188 -3.664062 C 1.269531 -3.320312 1.222656 -3.027344 1.222656 -2.6875 C 1.222656 -1.125 2.492188 0.292969 4.199219 0.292969 C 5.570312 0.292969 6.59375 -0.488281 7.035156 -1.757812 L 9.914062 -9.914062 Z M 23.542969 -9.914062 "/></g></g></g><g fill="#2b2157" fill-opacity="1"><g transform="translate(283.859963, 217.625878)"><g><path d="M 4.882812 -34.828125 L 4.882812 -2.003906 C 4.882812 -0.929688 5.8125 0 6.886719 0 L 22.761719 0 C 24.421875 0 25.742188 -1.320312 25.742188 -2.980469 C 25.742188 -4.640625 24.421875 -5.960938 22.761719 -5.960938 L 11.429688 -5.960938 L 11.429688 -34.828125 C 11.429688 -36.636719 9.964844 -38.101562 8.15625 -38.101562 C 6.351562 -38.101562 4.882812 -36.636719 4.882812 -34.828125 Z M 4.882812 -34.828125 "/></g></g></g><path stroke-linecap="round" transform="matrix(1.526927, 0, 0, 1.526927, 246.313817, 228.009023)" fill="none" stroke-linejoin="miter" d="M 1.999683 1.999752 L 28.935416 1.999752 " stroke="#4621cc" stroke-width="4" stroke-opacity="1" stroke-miterlimit="4"/><path stroke-linecap="round" transform="matrix(1.526927, 0, 0, 1.526927, 297.427984, 228.009023)" fill="none" stroke-linejoin="miter" d="M 1.999103 1.999752 L 4.859218 1.999752 " stroke="#ffbd59" stroke-width="4" stroke-opacity="1" stroke-miterlimit="4"/><g fill="#2b2157" fill-opacity="1"><g transform="translate(120.190431, 233.098782)"><g><path d="M 0.496094 -5.308594 L 1.785156 -5.308594 L 1.785156 -0.496094 C 1.785156 -0.195312 2.027344 0.0507812 2.328125 0.0507812 C 2.628906 0.0507812 2.875 -0.195312 2.875 -0.496094 L 2.875 -5.308594 L 4.144531 -5.308594 C 4.421875 -5.308594 4.648438 -5.539062 4.648438 -5.816406 C 4.648438 -6.082031 4.414062 -6.304688 4.144531 -6.304688 L 0.496094 -6.304688 C 0.21875 -6.304688 0 -6.074219 0 -5.796875 C 0 -5.53125 0.226562 -5.308594 0.496094 -5.308594 Z M 0.496094 -5.308594 "/></g></g></g><g fill="#2b2157" fill-opacity="1"><g transform="translate(124.840466, 233.098782)"><g><path d="M 3.378906 -3.851562 L 3.378906 -1.515625 C 3.011719 -1.109375 2.671875 -0.847656 2.28125 -0.847656 C 1.792969 -0.847656 1.652344 -1.097656 1.652344 -1.644531 L 1.652344 -3.851562 C 1.652344 -4.136719 1.417969 -4.375 1.132812 -4.375 C 0.847656 -4.375 0.609375 -4.136719 0.609375 -3.851562 L 0.609375 -1.328125 C 0.609375 -0.609375 0.847656 0.0976562 1.890625 0.0976562 C 2.394531 0.0976562 2.785156 -0.0507812 3.4375 -0.511719 L 3.445312 -0.390625 C 3.46875 -0.136719 3.671875 0.0507812 3.925781 0.0507812 C 4.203125 0.0507812 4.421875 -0.171875 4.421875 -0.441406 L 4.421875 -3.851562 C 4.421875 -4.136719 4.1875 -4.375 3.902344 -4.375 C 3.609375 -4.375 3.378906 -4.136719 3.378906 -3.851562 Z M 3.378906 -3.851562 "/></g></g></g><g fill="#2b2157" fill-opacity="1"><g transform="translate(129.930252, 233.098782)"><g><path d="M 1.207031 0.0507812 C 1.492188 0.0507812 1.726562 -0.1875 1.726562 -0.472656 L 1.726562 -2.921875 C 2.09375 -3.265625 2.328125 -3.476562 2.71875 -3.476562 C 3.101562 -3.476562 3.363281 -3.265625 3.363281 -2.941406 L 3.363281 -0.472656 C 3.363281 -0.179688 3.589844 0.0507812 3.882812 0.0507812 C 4.167969 0.0507812 4.40625 -0.179688 4.40625 -0.472656 L 4.40625 -2.914062 C 4.765625 -3.242188 5.023438 -3.476562 5.414062 -3.476562 C 5.847656 -3.476562 6.019531 -3.199219 6.019531 -2.867188 L 6.019531 -0.472656 C 6.019531 -0.1875 6.253906 0.0507812 6.539062 0.0507812 C 6.824219 0.0507812 7.058594 -0.1875 7.058594 -0.472656 L 7.058594 -3.054688 C 7.058594 -3.8125 6.570312 -4.421875 5.75 -4.421875 C 5.300781 -4.421875 4.941406 -4.234375 4.234375 -3.722656 C 3.980469 -4.152344 3.679688 -4.421875 3.109375 -4.421875 C 2.597656 -4.421875 2.253906 -4.21875 1.6875 -3.761719 L 1.667969 -3.957031 C 1.652344 -4.195312 1.441406 -4.375 1.207031 -4.375 C 0.921875 -4.375 0.683594 -4.152344 0.683594 -3.875 L 0.683594 -0.472656 C 0.683594 -0.1875 0.921875 0.0507812 1.207031 0.0507812 Z M 1.207031 0.0507812 "/></g></g></g><g fill="#2b2157" fill-opacity="1"><g transform="translate(137.642299, 233.098782)"><g><path d="M 4.097656 -2.183594 C 4.097656 -1.433594 3.664062 -0.847656 2.921875 -0.847656 C 2.191406 -0.847656 1.6875 -1.417969 1.6875 -2.140625 C 1.6875 -2.824219 2.132812 -3.484375 2.898438 -3.484375 C 3.664062 -3.484375 4.070312 -2.832031 4.097656 -2.183594 Z M 1.652344 -0.382812 L 1.667969 -0.59375 C 2.042969 -0.113281 2.5 0.0976562 3.078125 0.0976562 C 4.234375 0.0976562 5.136719 -0.832031 5.136719 -2.125 C 5.136719 -3.378906 4.285156 -4.421875 3.109375 -4.421875 C 2.613281 -4.421875 2.140625 -4.226562 1.765625 -3.820312 L 1.765625 -5.832031 C 1.765625 -6.117188 1.53125 -6.351562 1.246094 -6.351562 C 0.960938 -6.351562 0.726562 -6.117188 0.726562 -5.832031 L 0.726562 -0.414062 C 0.726562 -0.164062 0.9375 0.0507812 1.1875 0.0507812 C 1.433594 0.0507812 1.636719 -0.136719 1.652344 -0.382812 Z M 1.652344 -0.382812 "/></g></g></g><g fill="#2b2157" fill-opacity="1"><g transform="translate(143.106702, 233.098782)"><g><path d="M 3.378906 -3.851562 L 3.378906 -1.515625 C 3.011719 -1.109375 2.671875 -0.847656 2.28125 -0.847656 C 1.792969 -0.847656 1.652344 -1.097656 1.652344 -1.644531 L 1.652344 -3.851562 C 1.652344 -4.136719 1.417969 -4.375 1.132812 -4.375 C 0.847656 -4.375 0.609375 -4.136719 0.609375 -3.851562 L 0.609375 -1.328125 C 0.609375 -0.609375 0.847656 0.0976562 1.890625 0.0976562 C 2.394531 0.0976562 2.785156 -0.0507812 3.4375 -0.511719 L 3.445312 -0.390625 C 3.46875 -0.136719 3.671875 0.0507812 3.925781 0.0507812 C 4.203125 0.0507812 4.421875 -0.171875 4.421875 -0.441406 L 4.421875 -3.851562 C 4.421875 -4.136719 4.1875 -4.375 3.902344 -4.375 C 3.609375 -4.375 3.378906 -4.136719 3.378906 -3.851562 Z M 3.378906 -3.851562 "/></g></g></g><g fill="#2b2157" fill-opacity="1"><g transform="translate(148.196488, 233.098782)"><g><path d="M 1.253906 0.0507812 C 1.539062 0.0507812 1.773438 -0.1875 1.773438 -0.472656 L 1.773438 -2.957031 C 2.351562 -3.355469 2.710938 -3.476562 2.988281 -3.476562 C 3.460938 -3.476562 3.558594 -3.09375 3.558594 -2.761719 L 3.558594 -0.472656 C 3.558594 -0.1875 3.785156 0.0507812 4.078125 0.0507812 C 4.363281 0.0507812 4.601562 -0.1875 4.601562 -0.472656 L 4.601562 -2.882812 C 4.601562 -3.625 4.316406 -4.421875 3.289062 -4.421875 C 2.832031 -4.421875 2.492188 -4.265625 1.773438 -3.769531 L 1.773438 -5.832031 C 1.773438 -6.117188 1.539062 -6.351562 1.253906 -6.351562 C 0.96875 -6.351562 0.734375 -6.117188 0.734375 -5.832031 L 0.734375 -0.472656 C 0.734375 -0.1875 0.96875 0.0507812 1.253906 0.0507812 Z M 1.253906 0.0507812 "/></g></g></g><g fill="#2b2157" fill-opacity="1"><g transform="translate(153.245557, 233.098782)"><g><path d="M 0.75 -0.472656 C 0.75 -0.1875 0.984375 0.0507812 1.269531 0.0507812 C 1.554688 0.0507812 1.792969 -0.1875 1.792969 -0.472656 L 1.792969 -1.277344 L 2.507812 -1.929688 L 3.609375 -0.195312 C 3.707031 -0.0390625 3.867188 0.0507812 4.046875 0.0507812 C 4.355469 0.0507812 4.570312 -0.195312 4.570312 -0.472656 C 4.570312 -0.570312 4.542969 -0.667969 4.488281 -0.757812 L 3.273438 -2.628906 L 4.21875 -3.566406 C 4.316406 -3.664062 4.363281 -3.777344 4.363281 -3.902344 C 4.363281 -4.136719 4.175781 -4.375 3.894531 -4.375 C 3.769531 -4.375 3.65625 -4.324219 3.566406 -4.234375 L 1.792969 -2.476562 L 1.792969 -5.832031 C 1.792969 -6.117188 1.554688 -6.351562 1.269531 -6.351562 C 0.984375 -6.351562 0.75 -6.117188 0.75 -5.832031 Z M 0.75 -0.472656 "/></g></g></g><g fill="#2b2157" fill-opacity="1"><g transform="translate(158.319065, 233.098782)"><g><path d="M 3.183594 -1.523438 C 3.183594 -1.050781 2.695312 -0.824219 2.199219 -0.824219 C 1.675781 -0.824219 1.292969 -1.109375 1.292969 -1.523438 C 1.292969 -1.9375 1.71875 -2.207031 2.222656 -2.207031 C 2.710938 -2.207031 3.183594 -1.988281 3.183594 -1.523438 Z M 3.6875 0.0507812 C 3.964844 0.0507812 4.1875 -0.171875 4.1875 -0.449219 L 4.1875 -2.53125 C 4.1875 -3.820312 3.640625 -4.421875 2.3125 -4.421875 C 1.628906 -4.421875 0.894531 -4.324219 0.894531 -3.820312 C 0.894531 -3.566406 1.089844 -3.429688 1.335938 -3.429688 C 1.53125 -3.429688 1.832031 -3.511719 2.117188 -3.511719 C 2.898438 -3.511719 3.160156 -3.167969 3.160156 -2.769531 L 3.160156 -2.621094 C 3.160156 -2.621094 2.734375 -3.039062 1.980469 -3.039062 C 1.097656 -3.039062 0.277344 -2.515625 0.277344 -1.515625 C 0.277344 -0.539062 1.066406 0.0976562 1.972656 0.0976562 C 2.808594 0.0976562 3.191406 -0.449219 3.191406 -0.449219 L 3.199219 -0.390625 C 3.234375 -0.136719 3.429688 0.0507812 3.6875 0.0507812 Z M 3.6875 0.0507812 "/></g></g></g><g fill="#2b2157" fill-opacity="1"><g transform="translate(162.920233, 233.098782)"><g><path d="M 4.558594 -3.054688 C 4.558594 -3.769531 4.175781 -4.421875 3.191406 -4.421875 C 2.6875 -4.421875 2.402344 -4.21875 1.710938 -3.746094 L 1.703125 -3.910156 C 1.675781 -4.175781 1.457031 -4.375 1.1875 -4.375 C 0.910156 -4.375 0.683594 -4.144531 0.683594 -3.859375 L 0.683594 -0.472656 C 0.683594 -0.1875 0.921875 0.0507812 1.207031 0.0507812 C 1.492188 0.0507812 1.726562 -0.1875 1.726562 -0.472656 L 1.726562 -2.914062 C 2.183594 -3.273438 2.460938 -3.476562 2.816406 -3.476562 C 3.234375 -3.476562 3.5 -3.191406 3.5 -2.851562 L 3.5 -0.480469 C 3.5 -0.1875 3.738281 0.0507812 4.03125 0.0507812 C 4.324219 0.0507812 4.558594 -0.1875 4.558594 -0.480469 Z M 4.558594 -3.054688 "/></g></g></g><g fill="#2b2157" fill-opacity="1"><g transform="translate(168.099601, 233.098782)"><g/></g></g><g fill="#2b2157" fill-opacity="1"><g transform="translate(170.730002, 233.098782)"><g><path d="M 0.832031 -5.960938 L 0.832031 -0.488281 C 0.832031 -0.195312 1.074219 0.0507812 1.367188 0.0507812 C 1.675781 0.0507812 1.921875 -0.195312 1.921875 -0.488281 L 1.921875 -2.183594 L 2.648438 -2.183594 C 3.84375 -2.183594 4.925781 -2.933594 4.925781 -4.324219 C 4.925781 -5.839844 3.65625 -6.304688 2.425781 -6.304688 L 1.164062 -6.304688 C 0.984375 -6.304688 0.832031 -6.148438 0.832031 -5.960938 Z M 2.589844 -5.335938 C 3.25 -5.335938 3.828125 -5.050781 3.828125 -4.265625 C 3.828125 -3.414062 3.128906 -3.152344 2.484375 -3.152344 L 1.921875 -3.152344 L 1.921875 -5.335938 Z M 2.589844 -5.335938 "/></g></g></g><g fill="#2b2157" fill-opacity="1"><g transform="translate(175.819788, 233.098782)"><g><path d="M 2.410156 -3.492188 C 2.957031 -3.492188 3.363281 -3.175781 3.527344 -2.589844 L 1.3125 -2.589844 C 1.464844 -3.152344 1.839844 -3.492188 2.410156 -3.492188 Z M 3.257812 -1.117188 C 3.054688 -0.953125 2.777344 -0.839844 2.425781 -0.839844 C 1.3125 -0.839844 1.3125 -1.824219 1.3125 -1.824219 L 3.851562 -1.824219 C 4.226562 -1.824219 4.519531 -2.125 4.519531 -2.492188 C 4.519531 -3.527344 3.582031 -4.421875 2.425781 -4.421875 C 1.089844 -4.421875 0.277344 -3.355469 0.277344 -2.085938 C 0.277344 -0.910156 1.082031 0.0976562 2.410156 0.0976562 C 3.003906 0.0976562 3.542969 -0.105469 3.949219 -0.503906 C 4.023438 -0.570312 4.054688 -0.667969 4.054688 -0.765625 C 4.054688 -1.027344 3.8125 -1.230469 3.574219 -1.230469 C 3.460938 -1.230469 3.347656 -1.1875 3.257812 -1.117188 Z M 3.257812 -1.117188 "/></g></g></g><g fill="#2b2157" fill-opacity="1"><g transform="translate(180.648976, 233.098782)"><g><path d="M 4.558594 -3.054688 C 4.558594 -3.769531 4.175781 -4.421875 3.191406 -4.421875 C 2.6875 -4.421875 2.402344 -4.21875 1.710938 -3.746094 L 1.703125 -3.910156 C 1.675781 -4.175781 1.457031 -4.375 1.1875 -4.375 C 0.910156 -4.375 0.683594 -4.144531 0.683594 -3.859375 L 0.683594 -0.472656 C 0.683594 -0.1875 0.921875 0.0507812 1.207031 0.0507812 C 1.492188 0.0507812 1.726562 -0.1875 1.726562 -0.472656 L 1.726562 -2.914062 C 2.183594 -3.273438 2.460938 -3.476562 2.816406 -3.476562 C 3.234375 -3.476562 3.5 -3.191406 3.5 -2.851562 L 3.5 -0.480469 C 3.5 -0.1875 3.738281 0.0507812 4.03125 0.0507812 C 4.324219 0.0507812 4.558594 -0.1875 4.558594 -0.480469 Z M 4.558594 -3.054688 "/></g></g></g><g fill="#2b2157" fill-opacity="1"><g transform="translate(185.828344, 233.098782)"><g><path d="M 1.335938 -2.183594 C 1.359375 -2.832031 1.773438 -3.476562 2.539062 -3.476562 C 3.304688 -3.476562 3.730469 -2.824219 3.730469 -2.140625 C 3.730469 -1.417969 3.25 -0.847656 2.515625 -0.847656 C 1.773438 -0.847656 1.335938 -1.433594 1.335938 -2.183594 Z M 3.648438 -5.832031 L 3.648438 -3.820312 C 3.273438 -4.226562 2.800781 -4.421875 2.304688 -4.421875 C 1.132812 -4.421875 0.277344 -3.378906 0.277344 -2.125 C 0.277344 -0.832031 1.179688 0.0976562 2.335938 0.0976562 C 2.914062 0.0976562 3.371094 -0.113281 3.746094 -0.59375 L 3.761719 -0.375 C 3.777344 -0.136719 3.980469 0.0507812 4.21875 0.0507812 C 4.480469 0.0507812 4.691406 -0.15625 4.691406 -0.414062 L 4.691406 -5.832031 C 4.691406 -6.117188 4.460938 -6.34375 4.167969 -6.351562 C 3.882812 -6.351562 3.648438 -6.117188 3.648438 -5.832031 Z M 3.648438 -5.832031 "/></g></g></g><g fill="#2b2157" fill-opacity="1"><g transform="translate(191.243882, 233.098782)"><g><path d="M 0.660156 -3.851562 L 0.660156 -0.472656 C 0.660156 -0.1875 0.894531 0.0507812 1.179688 0.0507812 C 1.464844 0.0507812 1.703125 -0.1875 1.703125 -0.472656 L 1.703125 -3.851562 C 1.703125 -4.136719 1.464844 -4.375 1.179688 -4.375 C 0.894531 -4.375 0.660156 -4.136719 0.660156 -3.851562 Z M 0.660156 -5.960938 L 0.660156 -5.464844 C 0.660156 -5.285156 0.8125 -5.128906 0.992188 -5.128906 L 1.359375 -5.128906 C 1.546875 -5.128906 1.703125 -5.285156 1.703125 -5.464844 L 1.703125 -5.960938 C 1.703125 -6.148438 1.546875 -6.304688 1.359375 -6.304688 L 0.992188 -6.304688 C 0.8125 -6.304688 0.660156 -6.148438 0.660156 -5.960938 Z M 0.660156 -5.960938 "/></g></g></g><g fill="#2b2157" fill-opacity="1"><g transform="translate(193.605546, 233.098782)"><g><path d="M 1.335938 -2.183594 C 1.359375 -2.832031 1.773438 -3.476562 2.539062 -3.476562 C 3.304688 -3.476562 3.730469 -2.824219 3.730469 -2.140625 C 3.730469 -1.417969 3.25 -0.847656 2.515625 -0.847656 C 1.773438 -0.847656 1.335938 -1.433594 1.335938 -2.183594 Z M 3.648438 -5.832031 L 3.648438 -3.820312 C 3.273438 -4.226562 2.800781 -4.421875 2.304688 -4.421875 C 1.132812 -4.421875 0.277344 -3.378906 0.277344 -2.125 C 0.277344 -0.832031 1.179688 0.0976562 2.335938 0.0976562 C 2.914062 0.0976562 3.371094 -0.113281 3.746094 -0.59375 L 3.761719 -0.375 C 3.777344 -0.136719 3.980469 0.0507812 4.21875 0.0507812 C 4.480469 0.0507812 4.691406 -0.15625 4.691406 -0.414062 L 4.691406 -5.832031 C 4.691406 -6.117188 4.460938 -6.34375 4.167969 -6.351562 C 3.882812 -6.351562 3.648438 -6.117188 3.648438 -5.832031 Z M 3.648438 -5.832031 "/></g></g></g><g fill="#2b2157" fill-opacity="1"><g transform="translate(199.021083, 233.098782)"><g><path d="M 0.660156 -3.851562 L 0.660156 -0.472656 C 0.660156 -0.1875 0.894531 0.0507812 1.179688 0.0507812 C 1.464844 0.0507812 1.703125 -0.1875 1.703125 -0.472656 L 1.703125 -3.851562 C 1.703125 -4.136719 1.464844 -4.375 1.179688 -4.375 C 0.894531 -4.375 0.660156 -4.136719 0.660156 -3.851562 Z M 0.660156 -5.960938 L 0.660156 -5.464844 C 0.660156 -5.285156 0.8125 -5.128906 0.992188 -5.128906 L 1.359375 -5.128906 C 1.546875 -5.128906 1.703125 -5.285156 1.703125 -5.464844 L 1.703125 -5.960938 C 1.703125 -6.148438 1.546875 -6.304688 1.359375 -6.304688 L 0.992188 -6.304688 C 0.8125 -6.304688 0.660156 -6.148438 0.660156 -5.960938 Z M 0.660156 -5.960938 "/></g></g></g><g fill="#2b2157" fill-opacity="1"><g transform="translate(201.382747, 233.098782)"><g><path d="M 0.75 -0.472656 C 0.75 -0.1875 0.984375 0.0507812 1.269531 0.0507812 C 1.554688 0.0507812 1.792969 -0.1875 1.792969 -0.472656 L 1.792969 -1.277344 L 2.507812 -1.929688 L 3.609375 -0.195312 C 3.707031 -0.0390625 3.867188 0.0507812 4.046875 0.0507812 C 4.355469 0.0507812 4.570312 -0.195312 4.570312 -0.472656 C 4.570312 -0.570312 4.542969 -0.667969 4.488281 -0.757812 L 3.273438 -2.628906 L 4.21875 -3.566406 C 4.316406 -3.664062 4.363281 -3.777344 4.363281 -3.902344 C 4.363281 -4.136719 4.175781 -4.375 3.894531 -4.375 C 3.769531 -4.375 3.65625 -4.324219 3.566406 -4.234375 L 1.792969 -2.476562 L 1.792969 -5.832031 C 1.792969 -6.117188 1.554688 -6.351562 1.269531 -6.351562 C 0.984375 -6.351562 0.75 -6.117188 0.75 -5.832031 Z M 0.75 -0.472656 "/></g></g></g><g fill="#2b2157" fill-opacity="1"><g transform="translate(206.456255, 233.098782)"><g/></g></g><g fill="#2b2157" fill-opacity="1"><g transform="translate(209.086655, 233.098782)"><g><path d="M 0.726562 -2.003906 C 0.726562 -0.636719 1.734375 0.0976562 2.933594 0.0976562 C 4.121094 0.0976562 5.128906 -0.636719 5.128906 -2.003906 L 5.128906 -5.804688 C 5.128906 -6.109375 4.886719 -6.351562 4.585938 -6.351562 C 4.285156 -6.351562 4.039062 -6.109375 4.039062 -5.804688 L 4.039062 -2.109375 C 4.039062 -1.335938 3.597656 -0.894531 2.898438 -0.894531 C 2.207031 -0.894531 1.816406 -1.335938 1.816406 -2.101562 L 1.816406 -5.804688 C 1.816406 -6.109375 1.570312 -6.351562 1.269531 -6.351562 C 0.96875 -6.351562 0.726562 -6.109375 0.726562 -5.804688 Z M 0.726562 -2.003906 "/></g></g></g><g fill="#2b2157" fill-opacity="1"><g transform="translate(214.941955, 233.098782)"><g><path d="M 4.558594 -3.054688 C 4.558594 -3.769531 4.175781 -4.421875 3.191406 -4.421875 C 2.6875 -4.421875 2.402344 -4.21875 1.710938 -3.746094 L 1.703125 -3.910156 C 1.675781 -4.175781 1.457031 -4.375 1.1875 -4.375 C 0.910156 -4.375 0.683594 -4.144531 0.683594 -3.859375 L 0.683594 -0.472656 C 0.683594 -0.1875 0.921875 0.0507812 1.207031 0.0507812 C 1.492188 0.0507812 1.726562 -0.1875 1.726562 -0.472656 L 1.726562 -2.914062 C 2.183594 -3.273438 2.460938 -3.476562 2.816406 -3.476562 C 3.234375 -3.476562 3.5 -3.191406 3.5 -2.851562 L 3.5 -0.480469 C 3.5 -0.1875 3.738281 0.0507812 4.03125 0.0507812 C 4.324219 0.0507812 4.558594 -0.1875 4.558594 -0.480469 Z M 4.558594 -3.054688 "/></g></g></g><g fill="#2b2157" fill-opacity="1"><g transform="translate(220.121323, 233.098782)"><g><path d="M 2.558594 1.839844 C 4.105469 1.839844 4.773438 1.027344 4.773438 -0.0976562 L 4.773438 -3.882812 C 4.773438 -4.152344 4.550781 -4.375 4.285156 -4.375 C 4.03125 -4.375 3.820312 -4.175781 3.804688 -3.925781 L 3.785156 -3.695312 C 3.445312 -4.089844 3.070312 -4.421875 2.363281 -4.421875 C 1 -4.421875 0.277344 -3.265625 0.277344 -2.109375 C 0.277344 -0.847656 1.132812 0.0976562 2.328125 0.0976562 C 2.859375 0.0976562 3.332031 -0.0742188 3.730469 -0.511719 L 3.730469 -0.179688 C 3.730469 0.429688 3.402344 0.894531 2.460938 0.894531 C 1.839844 0.894531 1.390625 0.539062 1.117188 0.539062 C 0.871094 0.539062 0.617188 0.75 0.617188 1.035156 C 0.617188 1.472656 1.34375 1.839844 2.558594 1.839844 Z M 3.738281 -2.101562 C 3.738281 -1.367188 3.332031 -0.847656 2.589844 -0.847656 C 1.816406 -0.847656 1.335938 -1.402344 1.335938 -2.109375 C 1.335938 -2.792969 1.785156 -3.476562 2.550781 -3.476562 C 3.25 -3.476562 3.738281 -2.898438 3.738281 -2.101562 Z M 3.738281 -2.101562 "/></g></g></g><g fill="#2b2157" fill-opacity="1"><g transform="translate(225.430989, 233.098782)"><g><path d="M 2.558594 1.839844 C 4.105469 1.839844 4.773438 1.027344 4.773438 -0.0976562 L 4.773438 -3.882812 C 4.773438 -4.152344 4.550781 -4.375 4.285156 -4.375 C 4.03125 -4.375 3.820312 -4.175781 3.804688 -3.925781 L 3.785156 -3.695312 C 3.445312 -4.089844 3.070312 -4.421875 2.363281 -4.421875 C 1 -4.421875 0.277344 -3.265625 0.277344 -2.109375 C 0.277344 -0.847656 1.132812 0.0976562 2.328125 0.0976562 C 2.859375 0.0976562 3.332031 -0.0742188 3.730469 -0.511719 L 3.730469 -0.179688 C 3.730469 0.429688 3.402344 0.894531 2.460938 0.894531 C 1.839844 0.894531 1.390625 0.539062 1.117188 0.539062 C 0.871094 0.539062 0.617188 0.75 0.617188 1.035156 C 0.617188 1.472656 1.34375 1.839844 2.558594 1.839844 Z M 3.738281 -2.101562 C 3.738281 -1.367188 3.332031 -0.847656 2.589844 -0.847656 C 1.816406 -0.847656 1.335938 -1.402344 1.335938 -2.109375 C 1.335938 -2.792969 1.785156 -3.476562 2.550781 -3.476562 C 3.25 -3.476562 3.738281 -2.898438 3.738281 -2.101562 Z M 3.738281 -2.101562 "/></g></g></g><g fill="#2b2157" fill-opacity="1"><g transform="translate(230.740656, 233.098782)"><g><path d="M 3.378906 -3.851562 L 3.378906 -1.515625 C 3.011719 -1.109375 2.671875 -0.847656 2.28125 -0.847656 C 1.792969 -0.847656 1.652344 -1.097656 1.652344 -1.644531 L 1.652344 -3.851562 C 1.652344 -4.136719 1.417969 -4.375 1.132812 -4.375 C 0.847656 -4.375 0.609375 -4.136719 0.609375 -3.851562 L 0.609375 -1.328125 C 0.609375 -0.609375 0.847656 0.0976562 1.890625 0.0976562 C 2.394531 0.0976562 2.785156 -0.0507812 3.4375 -0.511719 L 3.445312 -0.390625 C 3.46875 -0.136719 3.671875 0.0507812 3.925781 0.0507812 C 4.203125 0.0507812 4.421875 -0.171875 4.421875 -0.441406 L 4.421875 -3.851562 C 4.421875 -4.136719 4.1875 -4.375 3.902344 -4.375 C 3.609375 -4.375 3.378906 -4.136719 3.378906 -3.851562 Z M 3.378906 -3.851562 "/></g></g></g><g fill="#2b2157" fill-opacity="1"><g transform="translate(235.830442, 233.098782)"><g><path d="M 0.726562 -5.832031 L 0.726562 -0.472656 C 0.726562 -0.1875 0.953125 0.0507812 1.238281 0.0507812 C 1.539062 0.0507812 1.765625 -0.195312 1.765625 -0.472656 L 1.765625 -5.832031 C 1.765625 -6.117188 1.539062 -6.34375 1.246094 -6.351562 C 0.960938 -6.351562 0.726562 -6.117188 0.726562 -5.832031 Z M 0.726562 -5.832031 "/></g></g></g></svg>